<svg width="192" height="192" viewBox="0 0 192 192" fill="none" xmlns="http://www.w3.org/2000/svg">
<rect width="192" height="192" rx="48" fill="#150050"/>
<path d="M55.434 110.557C53.274 110.557 51.39 110.053 49.782 109.045C48.198 108.013 47.118 106.633 46.542 104.905L50.502 103.033C51.006 104.089 51.69 104.917 52.554 105.517C53.418 106.117 54.378 106.417 55.434 106.417C56.202 106.417 56.79 106.261 57.198 105.949C57.606 105.637 57.81 105.205 57.81 104.653C57.81 104.365 57.738 104.125 57.594 103.933C57.45 103.717 57.234 103.525 56.946 103.357C56.658 103.189 56.298 103.045 55.866 102.925L52.518 101.989C50.91 101.533 49.674 100.801 48.81 99.793C47.946 98.761 47.514 97.549 47.514 96.157C47.514 94.933 47.826 93.865 48.45 92.953C49.074 92.041 49.95 91.333 51.078 90.829C52.206 90.301 53.502 90.037 54.966 90.037C56.886 90.037 58.566 90.493 60.006 91.405C61.47 92.293 62.502 93.553 63.102 95.185L59.106 97.057C58.818 96.241 58.29 95.593 57.522 95.113C56.778 94.609 55.926 94.357 54.966 94.357C54.27 94.357 53.718 94.501 53.31 94.789C52.926 95.077 52.734 95.473 52.734 95.977C52.734 96.241 52.806 96.481 52.95 96.697C53.094 96.913 53.322 97.105 53.634 97.273C53.97 97.441 54.378 97.597 54.858 97.741L57.99 98.677C59.622 99.157 60.87 99.889 61.734 100.873C62.598 101.833 63.03 103.021 63.03 104.437C63.03 105.661 62.706 106.729 62.058 107.641C61.434 108.553 60.558 109.273 59.43 109.801C58.302 110.305 56.97 110.557 55.434 110.557ZM64.0973 117.325V90.469H69.1373V94.213L68.6693 93.133C69.3173 92.149 70.1933 91.393 71.2973 90.865C72.4253 90.313 73.7093 90.037 75.1493 90.037C77.0213 90.037 78.7133 90.493 80.2253 91.405C81.7373 92.317 82.9373 93.553 83.8253 95.113C84.7133 96.649 85.1573 98.377 85.1573 100.297C85.1573 102.193 84.7133 103.921 83.8253 105.481C82.9613 107.041 81.7733 108.277 80.2613 109.189C78.7493 110.101 77.0333 110.557 75.1133 110.557C73.7693 110.557 72.5213 110.317 71.3693 109.837C70.2413 109.333 69.3293 108.601 68.6333 107.641L69.4973 106.525V117.325H64.0973ZM74.4653 105.697C75.4733 105.697 76.3613 105.469 77.1293 105.013C77.8973 104.557 78.4973 103.921 78.9293 103.105C79.3613 102.289 79.5773 101.353 79.5773 100.297C79.5773 99.241 79.3613 98.317 78.9293 97.525C78.4973 96.709 77.8973 96.073 77.1293 95.617C76.3613 95.137 75.4733 94.897 74.4653 94.897C73.5053 94.897 72.6413 95.125 71.8733 95.581C71.1293 96.037 70.5413 96.673 70.1093 97.489C69.7013 98.305 69.4973 99.241 69.4973 100.297C69.4973 101.353 69.7013 102.289 70.1093 103.105C70.5413 103.921 71.1293 104.557 71.8733 105.013C72.6413 105.469 73.5053 105.697 74.4653 105.697ZM86.16 110.125V82.873H91.56V110.125H86.16ZM93.3516 110.125V90.469H98.7516V110.125H93.3516ZM93.3516 88.705V83.305H98.7516V88.705H93.3516ZM110.011 110.341C107.635 110.341 105.787 109.705 104.467 108.433C103.171 107.137 102.523 105.337 102.523 103.033V95.149H99.2111V90.469H99.3911C100.399 90.469 101.167 90.217 101.695 89.713C102.247 89.209 102.523 88.453 102.523 87.445V86.005H107.923V90.469H112.531V95.149H107.923V102.673C107.923 103.345 108.043 103.909 108.283 104.365C108.523 104.797 108.895 105.121 109.399 105.337C109.903 105.553 110.527 105.661 111.271 105.661C111.439 105.661 111.631 105.649 111.847 105.625C112.063 105.601 112.291 105.577 112.531 105.553V110.125C112.171 110.173 111.763 110.221 111.307 110.269C110.851 110.317 110.419 110.341 110.011 110.341ZM123.003 110.341C120.627 110.341 118.779 109.705 117.459 108.433C116.163 107.137 115.515 105.337 115.515 103.033V95.149H112.203V90.469H112.383C113.391 90.469 114.159 90.217 114.687 89.713C115.239 89.209 115.515 88.453 115.515 87.445V86.005H120.915V90.469H125.523V95.149H120.915V102.673C120.915 103.345 121.035 103.909 121.275 104.365C121.515 104.797 121.887 105.121 122.391 105.337C122.895 105.553 123.519 105.661 124.263 105.661C124.431 105.661 124.623 105.649 124.839 105.625C125.055 105.601 125.283 105.577 125.523 105.553V110.125C125.163 110.173 124.755 110.221 124.299 110.269C123.843 110.317 123.411 110.341 123.003 110.341ZM129.588 118.117C129.012 118.117 128.448 118.069 127.896 117.973C127.368 117.877 126.9 117.721 126.492 117.505V113.077C126.828 113.173 127.224 113.257 127.68 113.329C128.136 113.401 128.556 113.437 128.94 113.437C129.996 113.437 130.752 113.185 131.208 112.681C131.664 112.177 132.036 111.601 132.324 110.953L133.656 107.893L133.584 112.393L124.944 90.469H130.74L136.464 106.057H134.304L140.028 90.469H145.824L137.4 111.961C136.872 113.329 136.224 114.469 135.456 115.381C134.688 116.293 133.812 116.977 132.828 117.433C131.868 117.889 130.788 118.117 129.588 118.117Z" fill="white"/>
</svg>
