<svg width="82" height="82" viewBox="0 0 82 82" fill="none" xmlns="http://www.w3.org/2000/svg">
<path d="M7 25.9382C7 23.5778 7.41865 21.5055 8.25596 19.7215C9.11943 17.9375 10.2838 16.5651 11.7491 15.6045C13.2144 14.6439 14.8498 14.1636 16.6552 14.1636C18.0943 14.1636 19.4026 14.4792 20.5801 15.1105C21.7837 15.7417 22.7257 16.5926 23.406 17.663V7H30.1175V37.4657H23.406V34.1721C22.778 35.27 21.8753 36.1483 20.6978 36.807C19.5465 37.4657 18.199 37.7951 16.6552 37.7951C14.8498 37.7951 13.2144 37.3148 11.7491 36.3541C10.2838 35.3661 9.11943 33.98 8.25596 32.196C7.41865 30.3845 7 28.2986 7 25.9382ZM23.406 25.9793C23.406 24.2227 22.935 22.8367 21.993 21.8212C21.0772 20.8056 19.9521 20.2979 18.6176 20.2979C17.2832 20.2979 16.145 20.8056 15.203 21.8212C14.2872 22.8092 13.8293 24.1816 13.8293 25.9382C13.8293 27.6947 14.2872 29.0945 15.203 30.1375C16.145 31.153 17.2832 31.6608 18.6176 31.6608C19.9521 31.6608 21.0772 31.153 21.993 30.1375C22.935 29.122 23.406 27.7359 23.406 25.9793Z" fill="white"/>
<path d="M48.4353 14.2459C50.9473 14.2459 52.962 15.1242 54.4796 16.8808C55.9973 18.6099 56.7561 20.9978 56.7561 24.0443V37.4657H50.0838V24.9913C50.0838 23.4542 49.7044 22.2603 48.9456 21.4095C48.1868 20.5586 47.1663 20.1332 45.8842 20.1332C44.602 20.1332 43.5816 20.5586 42.8228 21.4095C42.064 22.2603 41.6846 23.4542 41.6846 24.9913V37.4657H34.973V7H41.6846V17.5807C42.3649 16.5651 43.2938 15.7555 44.4712 15.1516C45.6487 14.5478 46.97 14.2459 48.4353 14.2459Z" fill="white"/>
<path d="M68.1315 18.3217C68.9164 17.0592 69.8977 16.0711 71.0751 15.3575C72.2526 14.6164 73.5609 14.2459 75 14.2459V21.6977H73.1553C71.4807 21.6977 70.2247 22.0819 69.3874 22.8504C68.5501 23.5915 68.1315 24.9089 68.1315 26.8027V37.4657H61.4199V14.4929H68.1315V18.3217Z" fill="white"/>
<path d="M29.279 48.5721L34.0233 64.9813H41.1594L33.396 41.9754H25.1228L17.3594 64.9813H24.5347L29.279 48.5721Z" fill="white"/>
<path d="M47.3535 67.3726C46.1773 67.3726 45.2101 67.7299 44.4521 68.4446C43.7201 69.1867 43.3542 70.0937 43.3542 71.1657C43.3542 72.2651 43.7201 73.1722 44.4521 73.8868C45.2101 74.6289 46.1773 75 47.3535 75C48.5037 75 49.4447 74.6289 50.1766 73.8868C50.9347 73.1722 51.3137 72.2651 51.3137 71.1657C51.3137 70.0937 50.9347 69.1867 50.1766 68.4446C49.4447 67.7299 48.5037 67.3726 47.3535 67.3726ZM50.6863 64.9813V41.9754H43.9815V64.9813H50.6863Z" fill="white"/>
<path d="M62.25 72.485V41.9754H55.5452V72.485H62.25Z" fill="white"/>
</svg>
