<svg width="512" height="512" viewBox="0 0 512 512" fill="none" xmlns="http://www.w3.org/2000/svg">
<path d="M0 147.909C0 130.97 3.15221 116.098 9.45664 103.295C15.9581 90.4924 24.7252 80.6439 35.7579 73.75C46.7907 66.856 59.104 63.4091 72.6979 63.4091C83.5337 63.4091 93.3843 65.6742 102.25 70.2045C111.313 74.7348 118.405 80.8409 123.527 88.5227V12H174.061V230.636H123.527V207C118.799 214.879 112.002 221.182 103.136 225.909C94.4679 230.636 84.3217 233 72.6979 233C59.104 233 46.7907 229.553 35.7579 222.659C24.7252 215.568 15.9581 205.621 9.45664 192.818C3.15221 179.818 0 164.848 0 147.909ZM123.527 148.205C123.527 135.598 119.981 125.652 112.889 118.364C105.993 111.076 97.5216 107.432 87.4739 107.432C77.4262 107.432 68.8562 111.076 61.7637 118.364C54.8682 125.455 51.4205 135.303 51.4205 147.909C51.4205 160.515 54.8682 170.561 61.7637 178.045C68.8562 185.333 77.4262 188.977 87.4739 188.977C97.5216 188.977 105.993 185.333 112.889 178.045C119.981 170.758 123.527 160.811 123.527 148.205Z" fill="white"/>
<path d="M311.984 64C330.897 64 346.067 70.303 357.494 82.9091C368.921 95.3182 374.634 112.455 374.634 134.318V230.636H324.396V141.114C324.396 130.083 321.539 121.515 315.825 115.409C310.112 109.303 302.429 106.25 292.775 106.25C283.121 106.25 275.438 109.303 269.724 115.409C264.011 121.515 261.154 130.083 261.154 141.114V230.636H210.62V12H261.154V87.9318C266.277 80.6439 273.271 74.8333 282.136 70.5C291.002 66.1667 300.951 64 311.984 64Z" fill="white"/>
<path d="M460.284 93.25C466.194 84.1894 473.582 77.0985 482.448 71.9773C491.314 66.6591 501.164 64 512 64V117.477H498.111C485.502 117.477 476.045 120.235 469.741 125.75C463.436 131.068 460.284 140.523 460.284 154.114V230.636H409.75V65.7727H460.284V93.25Z" fill="white"/>
<path d="M167.748 310.341L203.47 428.101H257.2L198.746 263H136.454L78 428.101H132.026L167.748 310.341Z" fill="white"/>
<path d="M303.838 445.262C294.982 445.262 287.7 447.826 281.992 452.955C276.481 458.281 273.726 464.79 273.726 472.483C273.726 480.373 276.481 486.883 281.992 492.011C287.7 497.337 294.982 500 303.838 500C312.498 500 319.584 497.337 325.094 492.011C330.802 486.883 333.656 480.373 333.656 472.483C333.656 464.79 330.802 458.281 325.094 452.955C319.584 447.826 312.498 445.262 303.838 445.262ZM328.932 428.101V263H278.449V428.101H328.932Z" fill="white"/>
<path d="M416 481.951V263H365.517V481.951H416Z" fill="white"/>
</svg>
