<svg width="147" height="88" viewBox="0 0 147 88" fill="none" xmlns="http://www.w3.org/2000/svg">
<g clip-path="url(#clip0_1_96)">
<path d="M41.7758 32.1056C41.7758 33.8946 41.9692 35.3452 42.3077 36.4089C42.6945 37.4726 43.178 38.6331 43.855 39.8902C44.0967 40.277 44.1934 40.6639 44.1934 41.0023C44.1934 41.4858 43.9033 41.9693 43.2747 42.4529L40.2286 44.4836C39.7934 44.7737 39.3583 44.9188 38.9714 44.9188C38.4879 44.9188 38.0044 44.677 37.5209 44.2419C36.844 43.5166 36.2638 42.743 35.7802 41.9693C35.2967 41.1474 34.8132 40.2287 34.2813 39.1166C30.5099 43.5649 25.7714 45.7891 20.0659 45.7891C16.0044 45.7891 12.7648 44.6287 10.3956 42.3078C8.02639 39.9869 6.8176 36.8924 6.8176 33.0243C6.8176 28.9144 8.26815 25.5781 11.2176 23.0639C14.167 20.5496 18.0835 19.2924 23.0637 19.2924C24.7077 19.2924 26.4 19.4375 28.189 19.6792C29.978 19.921 31.8154 20.3078 33.7495 20.743V17.2133C33.7495 13.5386 32.9758 10.9759 31.4769 9.47704C29.9297 7.97814 27.3187 7.25286 23.5956 7.25286C21.9033 7.25286 20.1627 7.44627 18.3736 7.88143C16.5846 8.3166 14.844 8.84847 13.1517 9.52539C12.378 9.86385 11.7978 10.0573 11.4594 10.154C11.1209 10.2507 10.8791 10.299 10.6857 10.299C10.0088 10.299 9.67034 9.8155 9.67034 8.80011V6.43088C9.67034 5.65726 9.76705 5.07704 10.0088 4.73858C10.2506 4.40011 10.6857 4.06165 11.3627 3.72319C13.055 2.85286 15.0857 2.12759 17.455 1.54737C19.8242 0.918796 22.3385 0.628686 24.9978 0.628686C30.7517 0.628686 34.9583 1.93418 37.6659 4.54517C40.3253 7.15616 41.6791 11.121 41.6791 16.4397V32.1056H41.7758ZM22.1451 39.4551C23.7407 39.4551 25.3846 39.165 27.1253 38.5847C28.8659 38.0045 30.4132 36.9408 31.7187 35.4902C32.4923 34.5715 33.0725 33.5562 33.3626 32.3957C33.6528 31.2353 33.8462 29.8331 33.8462 28.1891V26.1584C32.444 25.8199 30.9451 25.5298 29.3978 25.3364C27.8506 25.143 26.3517 25.0463 24.8528 25.0463C21.6132 25.0463 19.244 25.6748 17.6484 26.9803C16.0528 28.2858 15.2791 30.1232 15.2791 32.5408C15.2791 34.8133 15.8594 36.5056 17.0681 37.666C18.2286 38.8748 19.9209 39.4551 22.1451 39.4551ZM60.9714 44.677C60.1011 44.677 59.5209 44.532 59.1341 44.1935C58.7473 43.9034 58.4088 43.2265 58.1187 42.3078L46.7561 4.93198C46.4659 3.96495 46.3209 3.33638 46.3209 2.99792C46.3209 2.22429 46.7077 1.78913 47.4813 1.78913H52.2198C53.1385 1.78913 53.767 1.93418 54.1055 2.27264C54.4923 2.56275 54.7824 3.23968 55.0725 4.15836L63.1956 36.1671L70.7385 4.15836C70.9802 3.19132 71.2703 2.56275 71.6572 2.27264C72.044 1.98253 72.7209 1.78913 73.5912 1.78913H77.4593C78.378 1.78913 79.0066 1.93418 79.3934 2.27264C79.7802 2.56275 80.1187 3.23968 80.3121 4.15836L87.9517 36.554L96.3165 4.15836C96.6066 3.19132 96.9451 2.56275 97.2835 2.27264C97.6703 1.98253 98.2989 1.78913 99.1692 1.78913H103.666C104.44 1.78913 104.875 2.17594 104.875 2.99792C104.875 3.23967 104.826 3.48143 104.778 3.77154C104.73 4.06165 104.633 4.44847 104.44 4.98033L92.7868 42.3562C92.4967 43.3232 92.1582 43.9518 91.7714 44.2419C91.3846 44.532 90.7561 44.7254 89.9341 44.7254H85.7758C84.8571 44.7254 84.2286 44.5803 83.8418 44.2419C83.4549 43.9034 83.1165 43.2748 82.9231 42.3078L75.4286 11.121L67.9824 42.2595C67.7407 43.2265 67.4506 43.8551 67.0637 44.1935C66.6769 44.532 66 44.677 65.1297 44.677H60.9714ZM123.103 45.9825C120.589 45.9825 118.075 45.6924 115.657 45.1122C113.24 44.532 111.354 43.9034 110.097 43.1781C109.323 42.743 108.791 42.2595 108.598 41.8243C108.404 41.3891 108.308 40.9056 108.308 40.4704V38.0045C108.308 36.9891 108.695 36.5056 109.42 36.5056C109.71 36.5056 110 36.554 110.29 36.6507C110.58 36.7474 111.015 36.9408 111.499 37.1342C113.143 37.8595 114.932 38.4397 116.818 38.8265C118.752 39.2133 120.637 39.4067 122.571 39.4067C125.618 39.4067 127.987 38.8748 129.631 37.8111C131.275 36.7474 132.145 35.2001 132.145 33.2177C132.145 31.8638 131.71 30.7518 130.84 29.8331C129.969 28.9144 128.325 28.0924 125.956 27.3188L118.945 25.143C115.415 24.0309 112.804 22.3869 111.209 20.2111C109.613 18.0836 108.791 15.7144 108.791 13.2001C108.791 11.1693 109.226 9.38033 110.097 7.83308C110.967 6.28583 112.127 4.93198 113.578 3.86825C115.029 2.75616 116.673 1.93418 118.607 1.35396C120.541 0.773741 122.571 0.531982 124.699 0.531982C125.763 0.531982 126.875 0.580334 127.938 0.725389C129.051 0.870444 130.066 1.06385 131.081 1.25726C132.048 1.49902 132.967 1.74077 133.837 2.03088C134.708 2.32099 135.385 2.6111 135.868 2.90121C136.545 3.28803 137.029 3.67484 137.319 4.11C137.609 4.49682 137.754 5.02869 137.754 5.70561V7.97814C137.754 8.99352 137.367 9.52539 136.642 9.52539C136.255 9.52539 135.626 9.33198 134.804 8.94517C132.048 7.68803 128.954 7.05945 125.521 7.05945C122.765 7.05945 120.589 7.49462 119.09 8.4133C117.591 9.33198 116.818 10.7342 116.818 12.7166C116.818 14.0704 117.301 15.2309 118.268 16.1496C119.235 17.0682 121.024 17.9869 123.587 18.8089L130.453 20.9847C133.934 22.0968 136.448 23.6441 137.947 25.6265C139.446 27.6089 140.171 29.8814 140.171 32.3957C140.171 34.4748 139.736 36.3606 138.914 38.0045C138.044 39.6485 136.884 41.099 135.385 42.2595C133.886 43.4682 132.097 44.3386 130.018 44.9671C127.842 45.6441 125.569 45.9825 123.103 45.9825Z" fill="white"/>
<path fill-rule="evenodd" clip-rule="evenodd" d="M132.242 69.4812C116.334 81.2306 93.222 87.468 73.3495 87.468C45.499 87.468 20.4044 77.1691 1.4506 60.0526C-0.0482998 58.6987 1.30555 56.8614 3.09456 57.9251C23.5957 69.8196 48.8836 77.024 75.0418 77.024C92.6902 77.024 112.079 73.3493 129.921 65.8064C132.58 64.5976 134.853 67.5471 132.242 69.4812Z" fill="#FF9900"/>
<path fill-rule="evenodd" clip-rule="evenodd" d="M138.866 61.9384C136.835 59.3274 125.424 60.6812 120.251 61.3098C118.703 61.5032 118.462 60.1494 119.864 59.134C128.954 52.7516 143.895 54.5889 145.635 56.7164C147.376 58.8922 145.152 73.8329 136.642 80.9889C135.336 82.101 134.079 81.5208 134.659 80.0702C136.593 75.2834 140.897 64.501 138.866 61.9384Z" fill="#FF9900"/>
</g>
<defs>
<clipPath id="clip0_1_96">
<rect width="146.989" height="88" fill="white"/>
</clipPath>
</defs>
</svg>
