<svg width="194" height="193" viewBox="0 0 194 193" fill="none" xmlns="http://www.w3.org/2000/svg">
<g clip-path="url(#clip0_1_85)">
<path d="M97.0208 193C150.316 193 193.521 149.795 193.521 96.5C193.521 43.2045 150.316 0 97.0208 0C43.7253 0 0.520752 43.2045 0.520752 96.5C0.520752 149.795 43.7253 193 97.0208 193Z" fill="#2B2E3A"/>
<path d="M76.2898 54.0475C56.6845 50.477 41.1827 54.2141 35.0044 64.915C30.3943 72.9004 31.7121 83.4875 38.201 94.8044C38.3291 95.0394 38.5029 95.2465 38.7121 95.4135C38.9214 95.5805 39.1618 95.704 39.4194 95.7769C39.677 95.8497 39.9466 95.8703 40.2123 95.8376C40.478 95.8048 40.7344 95.7194 40.9667 95.5862C41.1989 95.453 41.4022 95.2748 41.5646 95.062C41.727 94.8492 41.8453 94.6062 41.9126 94.347C41.9798 94.0879 41.9946 93.818 41.9562 93.5531C41.9177 93.2881 41.8267 93.0336 41.6886 92.8043C35.8443 82.61 34.7066 73.4734 38.4867 66.9257C43.6193 58.0364 57.446 54.7026 75.5691 58.0032C76.0899 58.0899 76.6239 57.9683 77.0558 57.6647C77.4877 57.361 77.7828 56.8997 77.8774 56.3803C77.9721 55.8609 77.8586 55.3251 77.5616 54.8886C77.2645 54.4521 76.8077 54.15 76.2898 54.0475ZM48.3961 108.56C56.3234 117.272 66.6225 125.443 78.3684 132.224C106.808 148.644 137.085 153.032 152.006 142.858C152.229 142.712 152.421 142.522 152.57 142.301C152.719 142.079 152.823 141.83 152.875 141.568C152.927 141.307 152.926 141.037 152.872 140.775C152.819 140.514 152.714 140.265 152.564 140.045C152.413 139.824 152.22 139.636 151.996 139.491C151.772 139.345 151.521 139.246 151.259 139.199C150.996 139.152 150.726 139.157 150.466 139.215C150.205 139.273 149.959 139.382 149.741 139.537C136.386 148.642 107.626 144.473 80.379 128.742C68.9845 122.164 59.0111 114.251 51.3702 105.854C51.1928 105.657 50.9784 105.498 50.7392 105.384C50.5 105.271 50.2408 105.206 49.9764 105.193C49.712 105.18 49.4477 105.219 49.1985 105.309C48.9494 105.398 48.7204 105.536 48.5246 105.714C48.3288 105.892 48.1702 106.107 48.0577 106.347C47.9452 106.587 47.8812 106.846 47.8693 107.11C47.8573 107.375 47.8977 107.639 47.9881 107.888C48.0785 108.137 48.2171 108.365 48.3961 108.56Z" fill="#9FEAF9"/>
<path d="M147.246 106.115C160.084 90.949 164.566 75.696 158.4 65.0177C153.864 57.1597 144.273 53.011 131.527 52.8451C130.999 52.8459 130.492 53.0545 130.116 53.4259C129.741 53.7973 129.526 54.3015 129.52 54.8297C129.513 55.3579 129.714 55.8676 130.08 56.2486C130.446 56.6296 130.947 56.8512 131.475 56.8657C142.938 57.0149 151.201 60.5892 154.919 67.0283C160.039 75.898 156.042 89.5 144.177 103.517C144.003 103.718 143.87 103.951 143.787 104.204C143.704 104.456 143.672 104.723 143.692 104.988C143.713 105.253 143.786 105.512 143.907 105.749C144.028 105.985 144.195 106.196 144.398 106.368C144.601 106.539 144.836 106.669 145.089 106.75C145.343 106.83 145.61 106.859 145.875 106.836C146.14 106.812 146.397 106.736 146.633 106.613C146.868 106.489 147.076 106.32 147.246 106.115ZM114.254 54.717C102.647 57.2042 90.2922 62.0669 78.4272 68.9169C49.0686 85.8669 29.9171 110.861 32.5769 128.984C32.6124 129.248 32.6998 129.502 32.8342 129.732C32.9686 129.961 33.1472 130.162 33.3598 130.322C33.5723 130.482 33.8145 130.599 34.0723 130.665C34.3302 130.73 34.5985 130.744 34.8618 130.706C35.1251 130.667 35.378 130.576 35.6061 130.439C35.8341 130.302 36.0326 130.121 36.1901 129.907C36.3477 129.692 36.4611 129.449 36.5237 129.19C36.5864 128.931 36.5971 128.663 36.5553 128.4C34.1933 112.309 52.3473 88.6172 80.4379 72.3992C91.9478 65.7535 103.911 61.0453 115.096 58.6487C115.358 58.5971 115.607 58.4939 115.829 58.3451C116.05 58.1964 116.24 58.005 116.387 57.7822C116.533 57.5594 116.634 57.3096 116.684 57.0474C116.733 56.7852 116.73 56.5157 116.674 56.2548C116.618 55.9939 116.511 55.7468 116.358 55.5277C116.206 55.3087 116.011 55.1222 115.786 54.9791C115.561 54.8359 115.31 54.739 115.047 54.6941C114.784 54.6491 114.514 54.6569 114.254 54.717Z" fill="#9FEAF9"/>
<path d="M66.6911 141.548C73.4039 160.29 84.3846 171.83 96.732 171.83C105.737 171.83 114.069 165.691 120.566 154.884C120.707 154.658 120.801 154.406 120.843 154.142C120.886 153.879 120.875 153.61 120.813 153.351C120.75 153.092 120.637 152.848 120.479 152.633C120.321 152.419 120.122 152.237 119.894 152.1C119.666 151.963 119.412 151.872 119.148 151.834C118.885 151.795 118.616 151.809 118.358 151.876C118.1 151.942 117.857 152.059 117.645 152.22C117.432 152.38 117.254 152.582 117.12 152.812C111.281 162.525 104.109 167.809 96.732 167.809C86.4751 167.809 76.6811 157.517 70.4773 140.193C70.3923 139.94 70.2576 139.706 70.081 139.505C69.9044 139.304 69.6894 139.14 69.4488 139.023C69.2081 138.906 68.9466 138.839 68.6795 138.824C68.4124 138.81 68.145 138.849 67.8932 138.939C67.6413 139.029 67.41 139.169 67.2127 139.349C67.0154 139.53 66.8562 139.748 66.7443 139.991C66.6325 140.234 66.5702 140.497 66.5612 140.764C66.5522 141.032 66.5966 141.298 66.6919 141.548H66.6911ZM128 137.882C131.476 126.778 133.342 113.97 133.342 100.622C133.342 67.3148 121.684 38.603 105.08 31.2306C104.595 31.0274 104.05 31.0224 103.561 31.2165C103.072 31.4107 102.679 31.7886 102.466 32.2692C102.252 32.7499 102.236 33.295 102.419 33.7877C102.603 34.2804 102.973 34.6816 103.449 34.9051C118.258 41.4814 129.32 68.7299 129.32 100.622C129.32 113.571 127.513 125.975 124.164 136.681C124.08 136.934 124.048 137.201 124.069 137.467C124.09 137.732 124.164 137.991 124.286 138.228C124.408 138.465 124.575 138.676 124.779 138.847C124.983 139.019 125.219 139.148 125.473 139.228C125.728 139.307 125.995 139.336 126.26 139.311C126.526 139.286 126.783 139.209 127.019 139.084C127.254 138.958 127.462 138.788 127.631 138.581C127.799 138.375 127.925 138.137 128.001 137.882H128ZM165.864 135.913C165.864 130.598 161.557 126.291 156.242 126.291C150.928 126.291 146.62 130.598 146.62 135.913C146.62 141.227 150.928 145.535 156.242 145.535C161.557 145.535 165.864 141.227 165.864 135.913ZM161.844 135.913C161.844 136.648 161.699 137.377 161.417 138.056C161.136 138.736 160.723 139.353 160.203 139.874C159.683 140.394 159.066 140.806 158.386 141.088C157.706 141.369 156.978 141.514 156.242 141.514C155.507 141.514 154.778 141.369 154.099 141.088C153.419 140.806 152.802 140.394 152.281 139.874C151.761 139.353 151.349 138.736 151.067 138.056C150.786 137.377 150.641 136.648 150.641 135.913C150.641 134.427 151.231 133.002 152.281 131.952C153.332 130.901 154.757 130.311 156.242 130.311C157.728 130.311 159.153 130.901 160.203 131.952C161.254 133.002 161.844 134.427 161.844 135.913ZM37.083 145.535C42.398 145.535 46.7058 141.227 46.7058 135.913C46.7058 130.598 42.3973 126.291 37.083 126.291C31.7695 126.291 27.4609 130.598 27.4609 135.913C27.4609 141.227 31.7695 145.535 37.083 145.535ZM37.083 141.514C35.5974 141.514 34.1726 140.924 33.1221 139.874C32.0716 138.823 31.4815 137.398 31.4815 135.913C31.4815 134.427 32.0716 133.002 33.1221 131.952C34.1726 130.901 35.5974 130.311 37.083 130.311C38.5686 130.311 39.9934 130.901 41.0439 131.952C42.0943 133.002 42.6845 134.427 42.6845 135.913C42.6845 137.398 42.0943 138.823 41.0439 139.874C39.9934 140.924 38.5686 141.514 37.083 141.514Z" fill="#9FEAF9"/>
<path d="M96.732 41.0456C102.046 41.0456 106.354 36.7378 106.354 31.4235C106.354 26.1092 102.046 21.8014 96.732 21.8014C91.4177 21.8014 87.1099 26.1092 87.1099 31.4235C87.1099 36.7378 91.4177 41.0456 96.732 41.0456ZM96.732 37.025C95.2464 37.025 93.8216 36.4349 92.7712 35.3844C91.7207 34.3339 91.1305 32.9091 91.1305 31.4235C91.1305 29.9379 91.7207 28.5131 92.7712 27.4626C93.8216 26.4121 95.2464 25.822 96.732 25.822C98.2176 25.822 99.6424 26.4121 100.693 27.4626C101.743 28.5131 102.334 29.9379 102.334 31.4235C102.334 32.9091 101.743 34.3339 100.693 35.3844C99.6424 36.4349 98.2176 37.025 96.732 37.025ZM98.2014 107.426C94.4432 108.238 90.7407 105.85 89.9273 102.092C89.5377 100.287 89.8809 98.4014 90.8813 96.8497C91.8817 95.2979 93.4574 94.207 95.2619 93.8168C99.0201 93.0048 102.723 95.3932 103.537 99.1514C104.349 102.91 101.96 106.613 98.2014 107.426Z" fill="#9FEAF9"/>
</g>
<defs>
<clipPath id="clip0_1_85">
<rect width="193" height="193" fill="white" transform="translate(0.520752)"/>
</clipPath>
</defs>
</svg>
