<svg width="88" height="131" viewBox="0 0 88 131" fill="none" xmlns="http://www.w3.org/2000/svg">
<g clip-path="url(#clip0_1_144)">
<path d="M21.951 131C33.9546 131 43.6966 121.258 43.6966 109.254V87.5085H21.951C9.94739 87.5085 0.205338 97.2506 0.205338 109.254C0.205338 121.258 9.94739 131 21.951 131Z" fill="#0ACF83"/>
<path d="M0.205338 65.7632C0.205338 53.7596 9.94739 44.0176 21.951 44.0176H43.6966V87.5089H21.951C9.94739 87.5089 0.205338 77.7668 0.205338 65.7632Z" fill="#A259FF"/>
<path d="M0.205414 22.2718C0.205414 10.2682 9.94747 0.526123 21.9511 0.526123H43.6967V44.0174H21.9511C9.94747 44.0174 0.205414 34.2754 0.205414 22.2718Z" fill="#F24E1E"/>
<path d="M43.6967 0.526123H65.4423C77.4459 0.526123 87.188 10.2682 87.188 22.2718C87.188 34.2754 77.4459 44.0174 65.4423 44.0174H43.6967V0.526123Z" fill="#FF7262"/>
<path d="M87.188 65.7632C87.188 77.7668 77.4459 87.5089 65.4423 87.5089C53.4387 87.5089 43.6967 77.7668 43.6967 65.7632C43.6967 53.7596 53.4387 44.0176 65.4423 44.0176C77.4459 44.0176 87.188 53.7596 87.188 65.7632Z" fill="#1ABCFE"/>
</g>
<defs>
<clipPath id="clip0_1_144">
<rect width="87" height="130.474" fill="white" transform="translate(0.196655 0.526123)"/>
</clipPath>
</defs>
</svg>
