<svg width="79" height="107" viewBox="0 0 79 107" fill="none" xmlns="http://www.w3.org/2000/svg">
<path d="M1.03146 86.3321L14.2016 2.05797C14.3626 1.02442 15.1664 0.20967 16.1976 0.0344731C17.2289 -0.140724 18.2566 0.363314 18.7497 1.28575L32.3699 26.6895L37.7989 16.3528C38.2193 15.5536 39.0482 15.0531 39.9513 15.0531C40.8545 15.0531 41.6833 15.5536 42.1038 16.3528L78.8598 86.3319H1.03146V86.3321Z" fill="#FFA000"/>
<path d="M46.5309 53.5041L32.3636 26.6775L1.03152 86.3321L46.5309 53.5041Z" fill="#F57C00"/>
<path d="M78.8603 86.3322L68.773 23.911C68.6206 23.0146 67.9809 22.2782 67.1145 22.0007C66.2482 21.7231 65.3 21.9541 64.6566 22.5968L1.03152 86.3313L36.2369 106.074C38.4477 107.309 41.1401 107.309 43.3509 106.074L78.8603 86.3313V86.3322Z" fill="#FFCA28"/>
<path d="M68.773 23.9109C68.6206 23.0145 67.9808 22.2782 67.1145 22.0006C66.2481 21.723 65.3 21.9541 64.6566 22.5967L52.0285 35.2569L42.0983 16.3525C41.6779 15.5533 40.849 15.0528 39.9459 15.0528C39.0427 15.0528 38.2139 15.5533 37.7934 16.3525L32.3644 26.6892L18.7436 1.28583C18.2496 0.363149 17.2207 -0.140072 16.1883 0.036431C15.1558 0.212934 14.3547 1.02973 14.1955 2.06409L1.03147 86.3321H0.989014L1.03147 86.3808L1.37802 86.551L64.6382 23.2177C65.2813 22.5716 66.2318 22.3393 67.1004 22.6161C67.9691 22.8928 68.6099 23.6321 68.7608 24.5311L78.763 86.3928L78.8603 86.332L68.7731 23.9108L68.773 23.9109ZM1.14699 86.2166L14.2016 2.66005C14.3606 1.62569 15.1636 0.808896 16.1952 0.632394C17.2268 0.455891 18.2558 0.958949 18.7505 1.88179L32.3699 27.2856L37.7989 16.9489C38.2193 16.1496 39.0482 15.6492 39.9513 15.6492C40.8545 15.6492 41.6833 16.1496 42.1038 16.9489L51.8325 35.4515L1.14641 86.2166H1.14699Z" fill="white" fill-opacity="0.2"/>
<path opacity="0.2" d="M43.3509 105.479C41.1402 106.713 38.4477 106.713 36.2369 105.479L1.11661 85.7908L1.03146 86.3321L36.2369 106.069C38.4476 107.303 41.1401 107.303 43.3508 106.069L78.8603 86.3321L78.7691 85.7727L43.3509 105.479V105.479Z" fill="#A52714"/>
<path d="M68.6721 23.9237C68.5203 23.0276 67.8827 22.2909 67.0194 22.015C66.1562 21.7391 65.2113 21.9685 64.5701 22.611L51.9854 35.2648L42.0908 16.3691C41.6718 15.5702 40.8458 15.0699 39.9459 15.0699C39.046 15.0699 38.2201 15.5702 37.801 16.3691L32.3903 26.7013L18.8178 1.30849C18.3255 0.386213 17.3003 -0.116927 16.2723 0.0596578C15.2443 0.236242 14.4441 1.05238 14.2857 2.0865L1.16754 86.3176L36.2499 106.046C38.4529 107.28 41.136 107.28 43.3391 106.046L78.7243 86.3176L68.6721 23.9235V23.9237Z" fill="url(#paint0_linear_1_84)"/>
<defs>
<linearGradient id="paint0_linear_1_84" x1="-1.53919" y1="18.227" x2="95.2447" y2="69.2793" gradientUnits="userSpaceOnUse">
<stop stop-color="white" stop-opacity="0.1"/>
<stop offset="0.14" stop-color="white" stop-opacity="0.08"/>
<stop offset="0.61" stop-color="white" stop-opacity="0.02"/>
<stop offset="1" stop-color="white" stop-opacity="0"/>
</linearGradient>
</defs>
</svg>
