<svg width="145" height="178" viewBox="0 0 145 178" fill="none" xmlns="http://www.w3.org/2000/svg">
<path d="M89.3023 0.0607804L144.457 0L51.9224 92.4873L27.8062 116.468L0.367249 88.9958L89.3023 0.0607804ZM88.789 82.6409C89.5049 81.6954 90.8218 82.1614 91.8213 82.0398L144.41 82.0533L96.4811 129.935L68.9004 102.523L88.789 82.6409Z" fill="#44D1FD"/>
<path d="M41.4074 129.982L68.9004 102.523L96.4811 129.935L96.5959 130.056L68.9071 157.488L41.4074 129.982Z" fill="#1FBCFD"/>
<path d="M68.9071 157.488L96.5959 130.056L144.43 177.937C126.412 177.978 108.401 177.924 90.3896 177.964C89.3631 178.194 88.7282 177.255 88.0732 176.675L68.9071 157.488Z" fill="#08589C"/>
</svg>
