<svg width="358" height="56" viewBox="0 0 358 56" fill="none" xmlns="http://www.w3.org/2000/svg">
<path d="M44.0854 14.6153H46.0578L51.6791 8.99404L51.9552 6.60747C48.735 3.76518 44.8433 1.79075 40.6479 0.870677C36.4524 -0.0493966 32.0917 0.115265 27.9775 1.34911C23.8634 2.58295 20.1317 4.84524 17.135 7.92227C14.1383 10.9993 11.9755 14.7895 10.8509 18.9348C11.4771 18.6781 12.1708 18.6365 12.8233 18.8165L24.0658 16.9624C24.0658 16.9624 24.6378 16.0157 24.9337 16.0749C27.3426 13.4293 30.6716 11.8045 34.2393 11.5331C37.8071 11.2618 41.3436 12.3644 44.1249 14.6153H44.0854Z" fill="#EA4335"/>
<path d="M59.6869 18.9351C58.3948 14.177 55.742 9.8995 52.0538 6.62744L44.1643 14.5169C45.8086 15.8605 47.1263 17.5598 48.018 19.4868C48.9098 21.4138 49.3523 23.5182 49.3122 25.6411V27.0415C50.2343 27.0415 51.1474 27.2232 51.9993 27.576C52.8512 27.9289 53.6253 28.4461 54.2773 29.0981C54.9293 29.7501 55.4465 30.5242 55.7994 31.3761C56.1523 32.228 56.3339 33.1411 56.3339 34.0632C56.3339 34.9853 56.1523 35.8984 55.7994 36.7503C55.4465 37.6022 54.9293 38.3762 54.2773 39.0282C53.6253 39.6803 52.8512 40.1975 51.9993 40.5504C51.1474 40.9032 50.2343 41.0848 49.3122 41.0848H35.2689L33.8685 42.505V50.927L35.2689 52.3274H49.3122C53.2338 52.3579 57.061 51.1254 60.2278 48.8122C63.3945 46.4989 65.7326 43.2278 66.8962 39.4827C68.0597 35.7377 67.987 31.7175 66.6886 28.017C65.3903 24.3165 62.9353 21.1322 59.6869 18.9351Z" fill="#4285F4"/>
<path d="M21.2059 52.2482H35.2492V41.0057H21.2059C20.2054 41.0055 19.2166 40.7902 18.3065 40.3745L16.3341 40.986L10.6734 46.6072L10.1803 48.5796C13.3547 50.9766 17.2281 52.2655 21.2059 52.2482Z" fill="#34A853"/>
<path d="M21.2059 15.7792C17.4008 15.8019 13.6979 17.0125 10.6142 19.2419C7.53056 21.4713 5.22021 24.6081 4.00585 28.2142C2.79149 31.8204 2.73376 35.7158 3.84072 39.3563C4.94769 42.9969 7.16407 46.2008 10.1803 48.5206L18.3262 40.3747C17.291 39.907 16.3848 39.1952 15.6852 38.3002C14.9856 37.4053 14.5136 36.354 14.3097 35.2365C14.1057 34.1191 14.1759 32.9688 14.5142 31.8844C14.8526 30.8001 15.4489 29.814 16.2521 29.0107C17.0554 28.2075 18.0415 27.6112 19.1258 27.2728C20.2102 26.9345 21.3605 26.8643 22.4779 27.0682C23.5954 27.2722 24.6467 27.7442 25.5416 28.4438C26.4366 29.1434 27.1484 30.0496 27.6161 31.0848L35.762 22.9389C34.0523 20.7037 31.8486 18.8943 29.3234 17.6523C26.7983 16.4102 24.02 15.7691 21.2059 15.7792Z" fill="#FBBC05"/>
<path d="M105.111 44.3982C102.693 44.429 100.294 43.9714 98.0568 43.053C95.82 42.1345 93.7916 40.774 92.093 39.053C90.341 37.405 88.9507 35.4109 88.0101 33.1971C87.0696 30.9833 86.5995 28.5982 86.6296 26.1931C86.6007 23.7882 87.0714 21.4035 88.0118 19.1899C88.9523 16.9762 90.342 14.982 92.093 13.3332C93.7833 11.5944 95.808 10.2157 98.0452 9.2801C100.282 8.34454 102.686 7.8715 105.111 7.88949C107.421 7.85869 109.715 8.28748 111.858 9.15091C114.002 10.0143 115.952 11.2952 117.596 12.919L114.085 16.489C111.681 14.1655 108.454 12.889 105.111 12.9388C103.376 12.9175 101.657 13.2572 100.061 13.9363C98.4649 14.6154 97.0277 15.6191 95.8406 16.8835C94.6068 18.1075 93.6335 19.5686 92.9793 21.1787C92.325 22.7888 92.0035 24.5146 92.0339 26.2523C92.0194 27.9702 92.3487 29.6735 93.0025 31.2622C93.6562 32.8508 94.6212 34.2926 95.8406 35.5027C98.2831 37.9369 101.579 39.3215 105.027 39.3621C108.475 39.4026 111.803 38.0957 114.302 35.7197C115.849 34.0254 116.798 31.8708 117.004 29.5856H105.17V24.5363H121.915C122.08 25.5532 122.146 26.5837 122.113 27.6132C122.217 29.7442 121.888 31.8742 121.145 33.8743C120.403 35.8745 119.262 37.7033 117.793 39.2503C116.159 40.9511 114.186 42.2887 112 43.1757C109.815 44.0627 107.468 44.4792 105.111 44.3982ZM144.045 41.0451C141.798 43.1993 138.805 44.402 135.692 44.402C132.579 44.402 129.587 43.1993 127.339 41.0451C126.221 39.9606 125.34 38.6554 124.753 37.2124C124.165 35.7693 123.884 34.2199 123.927 32.6625C123.885 31.1053 124.167 29.5563 124.754 28.1134C125.342 26.6705 126.222 25.3652 127.339 24.2799C129.589 22.1302 132.581 20.9306 135.692 20.9306C138.804 20.9306 141.796 22.1302 144.045 24.2799C145.163 25.3652 146.043 26.6705 146.631 28.1134C147.218 29.5563 147.5 31.1053 147.458 32.6625C147.498 34.2214 147.214 35.7716 146.623 37.2147C146.032 38.6579 145.148 39.9623 144.026 41.0451H144.045ZM131.028 37.7513C131.625 38.3896 132.348 38.8985 133.15 39.2464C133.953 39.5943 134.818 39.7738 135.692 39.7738C136.567 39.7738 137.432 39.5943 138.235 39.2464C139.037 38.8985 139.759 38.3896 140.357 37.7513C141.009 37.0776 141.519 36.2803 141.858 35.4064C142.197 34.5324 142.357 33.5994 142.329 32.6625C142.359 31.7225 142.199 30.7861 141.86 29.9087C141.521 29.0313 141.01 28.2307 140.357 27.5541C139.751 26.9223 139.024 26.4195 138.219 26.076C137.414 25.7326 136.548 25.5555 135.673 25.5555C134.797 25.5555 133.931 25.7326 133.126 26.076C132.321 26.4195 131.594 26.9223 130.988 27.5541C130.335 28.2307 129.824 29.0313 129.485 29.9087C129.146 30.7861 128.987 31.7225 129.016 32.6625C128.991 33.6008 129.154 34.5346 129.497 35.4086C129.839 36.2827 130.353 37.0793 131.008 37.7513H131.028ZM169.726 41.0451C167.478 43.1993 164.486 44.402 161.373 44.402C158.26 44.402 155.267 43.1993 153.02 41.0451C151.901 39.9606 151.02 38.6554 150.433 37.2124C149.845 35.7693 149.564 34.2199 149.608 32.6625C149.566 31.1053 149.847 29.5563 150.435 28.1134C151.022 26.6705 151.902 25.3652 153.02 24.2799C155.267 22.1257 158.26 20.923 161.373 20.923C164.486 20.923 167.478 22.1257 169.726 24.2799C170.843 25.3652 171.724 26.6705 172.311 28.1134C172.898 29.5563 173.18 31.1053 173.138 32.6625C173.181 34.2199 172.9 35.7693 172.313 37.2124C171.725 38.6554 170.844 39.9606 169.726 41.0451ZM156.708 37.7513C157.306 38.3896 158.028 38.8985 158.831 39.2464C159.633 39.5943 160.498 39.7738 161.373 39.7738C162.247 39.7738 163.113 39.5943 163.915 39.2464C164.717 38.8985 165.44 38.3896 166.037 37.7513C166.689 37.0776 167.199 36.2803 167.538 35.4064C167.877 34.5324 168.037 33.5994 168.01 32.6625C168.039 31.7225 167.879 30.7861 167.541 29.9087C167.202 29.0313 166.691 28.2307 166.037 27.5541C165.432 26.9223 164.704 26.4195 163.899 26.076C163.094 25.7326 162.228 25.5555 161.353 25.5555C160.478 25.5555 159.612 25.7326 158.807 26.076C158.002 26.4195 157.274 26.9223 156.669 27.5541C156.015 28.2307 155.504 29.0313 155.165 29.9087C154.827 30.7861 154.667 31.7225 154.696 32.6625C154.671 33.6008 154.835 34.5346 155.177 35.4086C155.519 36.2827 156.033 37.0793 156.688 37.7513H156.708ZM186.609 54.9307C184.245 55.0058 181.927 54.2679 180.041 52.8399C178.367 51.5813 177.049 49.9094 176.215 47.9879L180.712 46.1141C181.201 47.2624 181.967 48.272 182.941 49.053C183.983 49.8932 185.291 50.3338 186.629 50.2956C187.478 50.3472 188.327 50.2153 189.12 49.909C189.913 49.6027 190.631 49.1291 191.225 48.5204C192.413 47.087 193 45.249 192.862 43.3923V41.696H192.684C191.933 42.5887 190.983 43.2941 189.912 43.7563C188.84 44.2185 187.676 44.4247 186.511 44.3587C185.03 44.3632 183.564 44.0605 182.206 43.4698C180.848 42.8791 179.627 42.0132 178.621 40.9268C177.529 39.849 176.667 38.5609 176.088 37.1404C175.508 35.7199 175.222 34.1966 175.248 32.6625C175.221 31.1195 175.506 29.5869 176.085 28.1566C176.665 26.7264 177.527 25.4279 178.621 24.3391C179.625 23.2482 180.845 22.3779 182.203 21.7837C183.561 21.1895 185.028 20.8843 186.511 20.8874C187.765 20.8852 189.005 21.1614 190.14 21.6961C191.122 22.1249 191.997 22.7646 192.704 23.5699H192.881V21.6961H197.773V42.7019C197.902 44.3636 197.69 46.0341 197.151 47.6111C196.611 49.1881 195.756 50.6385 194.637 51.8735C193.571 52.8934 192.311 53.6893 190.932 54.2144C189.554 54.7395 188.084 54.983 186.609 54.9307ZM186.964 39.7828C187.807 39.8013 188.643 39.6342 189.413 39.2933C190.183 38.9524 190.869 38.4462 191.422 37.8104C192.639 36.4158 193.28 34.611 193.217 32.7611C193.29 30.8801 192.649 29.0411 191.422 27.6132C190.87 26.9764 190.184 26.4694 189.414 26.1285C188.643 25.7875 187.807 25.621 186.964 25.6409C186.099 25.6231 185.24 25.7898 184.444 26.1299C183.648 26.47 182.934 26.9756 182.349 27.6132C181.044 28.9898 180.335 30.8256 180.377 32.7217C180.357 33.6518 180.52 34.5766 180.859 35.4432C181.197 36.3097 181.704 37.1008 182.349 37.771C182.931 38.4147 183.644 38.9271 184.44 39.274C185.236 39.6209 186.096 39.7943 186.964 39.7828ZM206.471 9.21098V43.6881H201.323V9.21098H206.471ZM220.593 44.3982C219.052 44.4378 217.518 44.1587 216.089 43.5783C214.661 42.998 213.367 42.1288 212.29 41.0254C211.196 39.93 210.337 38.6239 209.764 37.1863C209.191 35.7487 208.916 34.2096 208.956 32.6625C208.898 31.1116 209.153 29.5649 209.705 28.1146C210.257 26.6642 211.096 25.3399 212.171 24.2208C213.184 23.1526 214.41 22.3079 215.768 21.7407C217.127 21.1735 218.589 20.8963 220.061 20.9269C221.414 20.9126 222.757 21.1743 224.006 21.6961C225.131 22.1502 226.156 22.8203 227.023 23.6685C227.768 24.3876 228.43 25.1881 228.996 26.0551C229.453 26.7871 229.843 27.5595 230.159 28.3627L230.692 29.704L214.913 36.1931C215.39 37.2895 216.188 38.2157 217.202 38.8494C218.216 39.4832 219.399 39.7949 220.593 39.7434C221.756 39.7465 222.899 39.4484 223.912 38.878C224.925 38.3077 225.772 37.4845 226.372 36.4889L230.317 39.1516C229.31 40.5919 228.022 41.8131 226.53 42.7414C224.756 43.8624 222.692 44.4384 220.593 44.3982ZM214.006 32.3075L224.499 27.9485C224.175 27.18 223.597 26.5461 222.862 26.1537C222.038 25.6885 221.105 25.4503 220.159 25.4634C218.554 25.5049 217.03 26.1783 215.919 27.3371C215.254 27.9736 214.737 28.7492 214.406 29.6084C214.076 30.4676 213.939 31.3893 214.006 32.3075Z" fill="white"/>
<path d="M257.654 44.3979C255.465 44.4357 253.291 44.0307 251.262 43.2072C249.233 42.3838 247.391 41.1588 245.847 39.6059C244.304 38.053 243.09 36.2041 242.278 34.1704C241.467 32.1366 241.075 29.9598 241.126 27.7708C241.075 25.5817 241.467 23.405 242.278 21.3712C243.09 19.3374 244.304 17.4886 245.847 15.9357C247.391 14.3828 249.233 13.1578 251.262 12.3343C253.291 11.5109 255.465 11.1059 257.654 11.1437C259.87 11.0744 262.073 11.5067 264.098 12.4084C266.124 13.3101 267.919 14.6577 269.35 16.3507L266.51 19.1121C265.459 17.7904 264.111 16.7353 262.576 16.0327C261.041 15.3301 259.361 14.9998 257.674 15.0687C256.05 15.0321 254.435 15.3242 252.927 15.9276C251.419 16.5309 250.048 17.433 248.897 18.5795C247.7 19.7827 246.766 21.2203 246.151 22.802C245.537 24.3837 245.256 26.0754 245.327 27.7708C245.256 29.4662 245.537 31.1578 246.151 32.7396C246.766 34.3213 247.7 35.7589 248.897 36.9621C250.048 38.1086 251.419 39.0107 252.927 39.614C254.435 40.2173 256.05 40.5095 257.674 40.4729C259.559 40.494 261.424 40.09 263.132 39.291C264.839 38.492 266.344 37.3184 267.536 35.8575L270.376 38.6978C268.889 40.476 267.022 41.8981 264.913 42.8595C262.639 43.9092 260.158 44.435 257.654 44.3979Z" fill="white"/>
<path d="M278.009 43.6881H273.926V11.8342H278.009V43.6881Z" fill="white"/>
<path d="M284.676 24.5168C286.815 22.3921 289.708 21.1997 292.723 21.1997C295.738 21.1997 298.631 22.3921 300.77 24.5168C301.817 25.6213 302.634 26.9219 303.176 28.3436C303.717 29.7653 303.972 31.2801 303.926 32.8007C303.972 34.3214 303.717 35.8362 303.176 37.2579C302.634 38.6796 301.817 39.9801 300.77 41.0847C298.631 43.2094 295.738 44.4018 292.723 44.4018C289.708 44.4018 286.815 43.2094 284.676 41.0847C283.63 39.9801 282.812 38.6796 282.271 37.2579C281.729 35.8362 281.474 34.3214 281.52 32.8007C281.474 31.2801 281.729 29.7653 282.271 28.3436C282.812 26.9219 283.63 25.6213 284.676 24.5168ZM287.713 38.5206C288.357 39.2005 289.132 39.742 289.991 40.1121C290.851 40.4822 291.777 40.673 292.713 40.673C293.649 40.673 294.575 40.4822 295.435 40.1121C296.295 39.742 297.07 39.2005 297.713 38.5206C298.427 37.7549 298.981 36.8548 299.343 35.8728C299.706 34.8908 299.869 33.8465 299.824 32.8007C299.869 31.755 299.706 30.7107 299.343 29.7287C298.981 28.7467 298.427 27.8466 297.713 27.0808C297.07 26.401 296.295 25.8595 295.435 25.4894C294.575 25.1193 293.649 24.9284 292.713 24.9284C291.777 24.9284 290.851 25.1193 289.991 25.4894C289.132 25.8595 288.357 26.401 287.713 27.0808C287 27.8466 286.446 28.7467 286.083 29.7287C285.721 30.7107 285.558 31.755 285.603 32.8007C285.563 33.8446 285.731 34.8859 286.096 35.8645C286.462 36.843 287.018 37.7391 287.733 38.5009L287.713 38.5206Z" fill="white"/>
<path d="M326.549 43.6884H322.605V40.6706H322.486C321.784 41.8168 320.79 42.7561 319.607 43.3925C318.378 44.1045 316.983 44.4788 315.563 44.4773C314.41 44.5562 313.255 44.3736 312.182 43.9433C311.11 43.513 310.149 42.846 309.37 41.9921C307.876 40.1023 307.125 37.7309 307.26 35.3255V21.9133H311.342V34.576C311.342 38.6391 313.137 40.6706 316.727 40.6706C317.525 40.6955 318.316 40.5295 319.037 40.1864C319.757 39.8433 320.385 39.3331 320.869 38.6982C321.927 37.3571 322.491 35.6925 322.467 33.9843V21.9133H326.549V43.6884Z" fill="white"/>
<path d="M340.415 44.3981C339.03 44.4027 337.661 44.1072 336.401 43.5317C335.141 42.9563 334.021 42.1147 333.117 41.0648C331.072 38.8063 329.977 35.8462 330.06 32.8006C329.977 29.755 331.072 26.7948 333.117 24.5363C334.021 23.4865 335.141 22.6449 336.401 22.0694C337.661 21.494 339.03 21.1984 340.415 21.203C341.967 21.1785 343.5 21.5448 344.873 22.2681C346.079 22.8752 347.101 23.7947 347.831 24.9308H348.009L347.831 21.9131V11.8342H351.914V43.6881H347.969V40.6704H347.792C347.061 41.8065 346.04 42.7259 344.833 43.3331C343.472 44.05 341.953 44.416 340.415 44.3981ZM341.086 40.6704C342.009 40.6838 342.924 40.5008 343.77 40.1336C344.617 39.7663 345.376 39.2232 345.997 38.5402C347.384 36.961 348.093 34.8988 347.969 32.8006C348.093 30.7024 347.384 28.6402 345.997 27.061C345.372 26.3743 344.611 25.8257 343.762 25.4503C342.913 25.0749 341.994 24.881 341.066 24.881C340.138 24.881 339.219 25.0749 338.37 25.4503C337.521 25.8257 336.76 26.3743 336.135 27.061C335.446 27.8377 334.917 28.7428 334.579 29.7243C334.24 30.7059 334.099 31.7446 334.163 32.7809C334.099 33.8172 334.24 34.8558 334.579 35.8374C334.917 36.8189 335.446 37.724 336.135 38.5007C336.757 39.1959 337.52 39.7494 338.375 40.1238C339.229 40.4981 340.153 40.6845 341.086 40.6704Z" fill="white"/>
</svg>
