<svg width="136" height="133" viewBox="0 0 136 133" fill="none" xmlns="http://www.w3.org/2000/svg">
<path d="M24.0833 0H111.917C125.233 0 136 10.7991 136 24.156V108.844C136 122.201 125.233 133 111.917 133H24.0833C10.7667 133 0 122.201 0 108.844V24.156C0 10.7991 10.7667 0 24.0833 0Z" fill="#330000"/>
<path d="M65.7333 79.5726H44.6533L40.3467 92.9295C40.2333 93.441 39.78 93.782 39.27 93.7252H28.6167C27.9933 93.7252 27.8233 93.3842 27.9933 92.7021L46.24 40.0137C46.41 39.4453 46.58 38.8201 46.8067 38.138C47.0333 36.9444 47.1467 35.694 47.1467 34.4436C47.09 34.1594 47.3167 33.8752 47.6 33.8184H47.77H62.2767C62.73 33.8184 62.9567 33.9889 63.0133 34.2731L83.6967 92.8158C83.8667 93.441 83.6967 93.7252 83.13 93.7252H71.2867C70.89 93.782 70.4933 93.4978 70.38 93.1L65.7333 79.5726V79.5726ZM47.94 68.0346H62.3333C61.9933 66.841 61.54 65.4201 61.03 63.9423C60.52 62.4077 60.01 60.7594 59.5 59.0543C58.9333 57.2923 58.4233 55.5872 57.8567 53.8252C57.29 52.0632 56.78 50.4149 56.3267 48.7667C55.8733 47.1752 55.4767 45.6974 55.08 44.3333H54.9667C54.4567 46.7773 53.8333 49.2214 53.04 51.6654C52.19 54.3936 51.34 57.2355 50.4333 60.0773C49.64 62.976 48.79 65.6474 47.94 68.0346V68.0346Z" fill="#FF9A00"/>
<path d="M96.3333 43.765C94.4633 43.8219 92.65 43.083 91.29 41.7757C89.9867 40.3548 89.3067 38.4791 89.3633 36.5466C89.3067 34.6142 90.0433 32.7954 91.4033 31.4881C92.7633 30.1808 94.5767 29.4988 96.4467 29.4988C98.6567 29.4988 100.357 30.1808 101.603 31.4881C102.85 32.8522 103.53 34.671 103.473 36.5466C103.53 38.4791 102.85 40.3548 101.49 41.7757C100.187 43.1398 98.26 43.8787 96.3333 43.765ZM89.9867 93.1001V49.3351C89.9867 48.7667 90.2133 48.5394 90.7233 48.5394H101.943C102.453 48.5394 102.68 48.8236 102.68 49.3351V93.1001C102.68 93.7253 102.453 94.0095 101.943 94.0095H90.8367C90.27 94.0095 89.9867 93.6684 89.9867 93.1001V93.1001Z" fill="#FF9A00"/>
</svg>
