<svg width="138" height="134" viewBox="0 0 138 134" fill="none" xmlns="http://www.w3.org/2000/svg">
<g clip-path="url(#clip0_1_180)">
<path d="M24.7479 0H113.509C126.966 0 137.846 10.8803 137.846 24.3376V109.662C137.846 123.12 126.966 134 113.509 134H24.7479C11.2906 134 0.410278 123.12 0.410278 109.662V24.3376C0.410278 10.8803 11.2906 0 24.7479 0Z" fill="#49021F"/>
<path d="M50.3453 35.0461V94.029C50.3453 94.6589 50.059 94.9453 49.5436 94.9453H38.3197C37.8043 94.9453 37.5752 94.6589 37.5752 94.029V35.0461C37.5752 34.5307 37.8616 34.3017 38.377 34.3017H49.5436C49.8872 34.2444 50.2308 34.4735 50.2881 34.8743C50.3453 34.9316 50.3453 34.9889 50.3453 35.0461Z" fill="#FF3366"/>
<path d="M83.4445 95.6324C79.2069 95.6896 74.9693 94.8307 71.1325 93.0555C67.5248 91.3948 64.547 88.6461 62.4855 85.2674C60.3667 81.7743 59.3359 77.4221 59.3359 72.211C59.2787 67.9734 60.3667 63.7931 62.4855 60.1281C64.6616 56.4059 67.8111 53.3136 71.5906 51.252C75.5992 49.0187 80.4094 47.9307 86.0787 47.9307C86.365 47.9307 86.7658 47.9307 87.2812 47.9879C87.7966 48.0452 88.3693 48.0452 89.0564 48.1025V30.0067C89.0564 29.6059 89.2282 29.3768 89.6291 29.3768H101.254C101.54 29.3196 101.769 29.5486 101.827 29.7777V29.8922V84.4084C101.827 85.4392 101.884 86.5845 101.941 87.8443C102.056 89.0469 102.113 90.1922 102.17 91.1657C102.17 91.5666 101.998 91.9102 101.597 92.082C98.6197 93.3418 95.4701 94.258 92.2633 94.8307C89.4 95.3461 86.4222 95.6324 83.4445 95.6324ZM89.0564 84.1794V58.9828C88.541 58.8683 88.0257 58.7537 87.5103 58.6965C86.8804 58.6392 86.2505 58.582 85.6205 58.582C83.3872 58.582 81.1539 59.0401 79.1496 60.0708C77.2026 61.0443 75.5419 62.476 74.2821 64.3084C73.0222 66.1409 72.3923 68.6033 72.3923 71.5811C72.3351 73.5854 72.6787 75.5896 73.3658 77.4794C73.9385 79.0255 74.7975 80.3999 75.9428 81.5452C77.0308 82.576 78.3479 83.3777 79.8368 83.8358C81.3829 84.3512 82.9863 84.5802 84.5898 84.5802C85.4487 84.5802 86.2504 84.523 86.9949 84.4657C87.7393 84.523 88.4265 84.4084 89.0564 84.1794Z" fill="#FF3366"/>
</g>
<defs>
<clipPath id="clip0_1_180">
<rect width="137.436" height="134" fill="white" transform="translate(0.410278)"/>
</clipPath>
</defs>
</svg>
