<svg width="445" height="120" viewBox="0 0 445 120" fill="none" xmlns="http://www.w3.org/2000/svg">
<path d="M54.3297 48.0649C48.22 21.0888 35.486 13.9075 32.2376 8.83099C30.8981 6.59467 29.7115 4.27012 28.686 1.87329C28.5144 4.26974 28.1991 5.77951 26.1639 7.59681C22.0775 11.2434 4.7223 25.3985 3.26173 56.0491C1.90093 84.6267 24.2524 102.249 27.2054 104.07C29.4761 105.188 32.2416 104.094 33.5904 103.067C44.3651 95.6664 59.0865 75.9356 54.3416 48.0649" fill="#10AA50"/>
<path d="M29.6118 88.8525C29.0491 95.9261 28.6461 100.036 27.2174 104.078C27.2174 104.078 28.1552 110.812 28.8137 117.945H31.1442C31.7001 112.922 32.5489 107.936 33.6862 103.012C30.6693 101.526 29.7275 95.0593 29.6118 88.8525Z" fill="#B8C4C2"/>
<path d="M33.6822 103.015C30.6334 101.605 29.7514 95.0032 29.6158 88.8523C30.3698 78.706 30.5895 68.5269 30.2742 58.3575C30.1146 53.0214 30.35 8.93467 28.9613 2.48022C29.9113 4.66628 31.0058 6.78651 32.2376 8.82683C35.486 13.9073 48.224 21.0887 54.3297 48.0647C59.0865 75.8875 44.4449 95.5664 33.6822 103.015Z" fill="#12924F"/>
<path d="M435.537 93.2619C434.232 93.2618 432.956 92.8754 431.869 92.1512C430.782 91.4271 429.934 90.3976 429.43 89.1922C428.926 87.9868 428.79 86.6592 429.038 85.3764C429.286 84.0936 429.908 82.9129 430.824 81.9827C431.741 81.0524 432.912 80.4142 434.19 80.1482C435.468 79.8823 436.797 80.0005 438.008 80.4879C439.219 80.9754 440.259 81.8104 440.998 82.8879C441.736 83.9654 442.14 85.2374 442.158 86.5438C442.181 87.4248 442.027 88.3014 441.704 89.1212C441.381 89.9409 440.896 90.6869 440.277 91.3143C439.659 91.9417 438.92 92.4376 438.106 92.7723C437.291 93.107 436.418 93.2735 435.537 93.2619ZM435.537 80.6086C434.345 80.6007 433.176 80.9473 432.18 81.6045C431.185 82.2617 430.406 83.1999 429.943 84.3002C429.481 85.4006 429.355 86.6137 429.581 87.7858C429.808 88.9579 430.377 90.0362 431.217 90.8843C432.056 91.7324 433.128 92.312 434.297 92.5498C435.466 92.7876 436.679 92.6728 437.783 92.22C438.887 91.7671 439.831 90.9966 440.497 90.0061C441.163 89.0156 441.52 87.8495 441.523 86.6557C441.539 85.862 441.395 85.0733 441.1 84.3363C440.806 83.5993 440.366 82.929 439.808 82.3651C439.25 81.8011 438.584 81.3551 437.851 81.0534C437.117 80.7517 436.33 80.6005 435.537 80.6086ZM437.134 90.8255L435.426 87.139H434.049V90.8255H433.047V82.4379H435.517C437.357 82.4379 438.123 83.2367 438.123 84.7825C438.123 86.0126 437.545 86.7795 436.467 87.0151L438.231 90.8135L437.134 90.8255ZM434.089 86.2722H435.537C436.711 86.2722 437.158 85.8728 437.158 84.8024C437.158 83.732 436.731 83.3685 435.41 83.3685H434.089V86.2722Z" fill="#21313C"/>
<path d="M337.005 87.223C338.797 88.6569 342.376 89.248 345.533 89.248C349.623 89.248 353.634 88.4892 357.553 84.9464C361.543 81.3158 364.289 75.76 364.289 66.8891C364.289 58.3658 361.048 51.448 354.4 47.398C350.649 45.0375 345.788 44.1069 340.245 44.1069C338.649 44.1069 337.005 44.1908 336.071 44.6141C335.688 44.9166 335.417 45.3383 335.301 45.8124C335.133 47.3301 335.133 58.889 335.133 65.7229C335.133 72.7285 335.133 82.498 335.301 83.6963C335.389 84.7108 335.9 86.4921 337.005 87.239M319.989 40.3125C321.438 40.3125 326.945 40.5641 329.507 40.5641C334.295 40.5641 337.604 40.3125 346.555 40.3125C354.057 40.3125 360.37 42.3375 364.883 46.2158C370.343 50.9448 373.264 57.523 373.264 65.5391C373.264 76.9303 368.076 83.5125 362.86 87.223C357.672 91.1053 350.924 93.298 341.311 93.298C336.195 93.298 327.412 93.1303 320.081 93.0464H319.929C319.586 92.3714 320.556 89.7393 321.154 89.6714C323.15 89.4477 323.676 89.3679 324.594 88.9884C326.143 88.3534 326.506 87.5625 326.677 84.7786C326.933 79.5464 326.849 73.3036 326.849 66.2141C326.849 61.1536 326.933 51.2803 326.765 48.1569C326.506 45.5448 325.404 44.8698 323.173 44.3625C321.592 44.0262 319.993 43.7729 318.385 43.6036C318.217 43.0964 319.526 40.8078 319.953 40.3125" fill="#21313C"/>
<path d="M394.394 44.5938C394.055 44.6777 393.628 45.5245 393.628 45.9438C393.54 48.9833 393.456 56.9116 393.456 62.3955C393.478 62.5003 393.53 62.5964 393.606 62.6717C393.682 62.747 393.778 62.7982 393.883 62.8188C394.989 62.9027 397.718 62.9906 400.021 62.9906C403.261 62.9906 405.137 62.5672 406.158 62.06C408.888 60.71 410.149 57.7543 410.149 54.5511C410.149 47.21 405.033 44.4261 397.447 44.4261C396.421 44.4131 395.396 44.4692 394.378 44.5938M413.733 78.3439C413.733 70.9189 408.273 66.7011 398.297 66.7011C397.874 66.7011 394.705 66.6172 393.951 66.785C393.696 66.8689 393.44 67.0366 393.44 67.2083C393.44 72.5245 393.353 81.0439 393.612 84.4189C393.783 85.8527 394.809 87.8777 396.082 88.4689C397.447 89.2277 400.516 89.3955 402.647 89.3955C408.529 89.3955 413.733 86.1084 413.733 78.3439ZM378.99 40.46C379.76 40.46 382.027 40.7116 387.826 40.7116C393.281 40.7116 397.714 40.5438 402.99 40.5438C409.554 40.5438 418.589 42.9083 418.589 52.6938C418.589 57.4867 415.181 61.385 410.748 63.2422C410.492 63.3261 410.492 63.4938 410.748 63.5777C417.057 65.1754 422.596 69.0616 422.596 76.4866C422.596 83.7439 418.078 88.3011 411.514 91.1689C407.523 92.9422 402.563 93.5294 397.547 93.5294C393.712 93.5294 383.432 93.13 377.717 93.1939C377.119 92.9422 378.264 90.2382 378.775 89.8189C380.084 89.7786 381.383 89.5746 382.642 89.2118C384.685 88.7085 384.928 88.0495 385.184 85.01C385.355 82.3939 385.355 73.0277 385.355 66.3616C385.355 57.2471 385.443 51.0922 385.355 48.0527C385.272 45.6922 384.418 44.9293 382.797 44.51C381.52 44.2543 379.389 44.0027 377.685 43.7511C377.258 43.3277 378.571 40.7955 378.994 40.46" fill="#21313C"/>
<path d="M73.2093 93.2618C72.9897 92.7218 72.9008 92.1374 72.9499 91.5564C72.9308 91.1603 73.0205 90.7666 73.2093 90.4181C74.3119 90.2589 75.4045 90.0362 76.4816 89.7511C77.99 89.3756 78.5567 88.5528 78.6445 86.6277C78.8919 82.0784 78.9079 73.5431 78.8201 67.5439V67.3682C78.8201 66.7212 78.8201 65.8425 78.0219 65.2234C76.6192 64.3425 75.0962 63.6698 73.5006 63.2263C72.7863 63.0146 72.3912 62.6392 72.4111 62.1998C72.4311 61.7605 72.882 61.2413 73.8118 61.0575C76.282 60.8059 82.7548 59.2602 85.2968 58.0859C85.5586 58.4274 85.68 58.8561 85.636 59.2842C85.636 59.5478 85.5961 59.8274 85.5682 60.1149C85.4964 60.9617 85.4166 61.9243 85.4166 62.8828C85.4322 62.9993 85.48 63.109 85.5546 63.1998C85.6292 63.2905 85.7276 63.3586 85.8387 63.3964C85.9499 63.4341 86.0694 63.4401 86.1837 63.4136C86.2981 63.3871 86.4028 63.3291 86.486 63.2463C91.3267 59.4479 95.6645 58.0939 97.8872 58.0939C101.547 58.0939 104.396 59.8433 106.603 63.446C106.653 63.533 106.725 63.6055 106.812 63.6565C106.899 63.7076 106.997 63.7355 107.098 63.7376C107.189 63.7367 107.279 63.7137 107.359 63.6706C107.44 63.6275 107.509 63.5655 107.56 63.4899C112.01 60.1109 116.42 58.0939 119.373 58.0939C126.348 58.0939 130.519 63.3222 130.519 72.0732C130.519 74.5895 130.495 77.7808 130.471 80.7564C130.451 83.3685 130.431 85.8169 130.431 87.5104C130.431 87.9098 130.981 89.0601 131.807 89.2877C132.829 89.787 134.302 90.0426 136.165 90.3621H136.237C136.377 90.8654 136.081 92.8185 135.798 93.2179C135.335 93.2179 134.697 93.178 133.899 93.138C132.45 93.0661 130.463 92.9663 128.152 92.9663C123.515 92.9663 121.093 93.0542 118.778 93.2059C118.603 92.6268 118.543 90.7576 118.754 90.3661C119.713 90.2161 120.661 90.0094 121.595 89.7471C123.072 89.2598 123.499 88.5888 123.591 86.6277C123.627 85.2337 123.894 72.9519 123.419 70.0362C122.98 67.0127 120.706 63.474 115.729 63.474C113.882 63.474 110.901 64.2448 108.059 66.4016C107.883 66.6016 107.784 66.858 107.78 67.1246V67.1845C108.115 68.7581 108.115 70.5954 108.115 73.3713C108.115 74.9689 108.115 76.6345 108.095 78.3C108.075 81.687 108.059 84.8823 108.115 87.2987C108.115 88.9442 109.109 89.3397 109.911 89.6552C110.346 89.751 110.689 89.8349 111.036 89.9148C111.703 90.0786 112.397 90.2463 113.431 90.4101C113.584 91.1117 113.57 91.8395 113.391 92.5349C113.348 92.7959 113.246 93.0434 113.091 93.2579C110.514 93.17 107.868 93.0941 104.049 93.0941C102.891 93.0941 101.004 93.142 99.3358 93.186C97.983 93.2219 96.706 93.2579 95.9797 93.2618C95.7833 92.7979 95.6959 92.2951 95.7243 91.792C95.6836 91.318 95.7762 90.8421 95.9917 90.4181L97.0173 90.2303C97.9112 90.0706 98.6854 89.9348 99.4117 89.7511C100.673 89.3516 101.148 88.6647 101.239 87.055C101.487 83.3006 101.678 72.4806 101.148 69.7726C100.246 65.4271 97.7755 63.2223 93.8008 63.2223C91.4743 63.2223 88.5332 64.3447 86.1309 66.146C85.8998 66.3712 85.7178 66.6418 85.5962 66.9408C85.4747 67.2398 85.4162 67.5607 85.4245 67.8834C85.4245 69.1735 85.4245 70.7072 85.4245 72.3528C85.4245 77.7848 85.3886 84.5468 85.5203 87.4704C85.6001 88.3731 85.9194 89.4435 87.6074 89.8349C87.9785 89.9428 88.617 90.0466 89.3593 90.1704C89.7863 90.2423 90.2532 90.3182 90.7361 90.4061C90.8896 91.3625 90.8116 92.3418 90.5086 93.2618C89.7663 93.2618 88.8525 93.2139 87.8069 93.17C86.2107 93.0981 84.2154 93.0102 81.9607 93.0102C79.295 93.0102 77.4393 93.0981 75.9508 93.17C74.9492 93.2179 74.0832 93.2579 73.2173 93.2618" fill="#21313C"/>
<path d="M158.788 61.7046C157.348 61.6747 155.931 62.0737 154.718 62.8509C151.757 64.6522 150.248 68.2509 150.248 73.5391C150.248 83.4364 155.2 90.3502 162.292 90.3502C164.193 90.4105 166.048 89.7533 167.488 88.5089C169.666 86.7316 170.824 83.0969 170.824 78.0085C170.824 68.2589 165.983 61.7046 158.78 61.7046M160.145 94.0208C147.335 94.0208 142.774 84.6147 142.774 75.8157C142.774 69.6688 145.284 64.8639 150.236 61.5289C153.705 59.3796 157.686 58.2017 161.765 58.1179C171.538 58.1179 178.366 65.1515 178.366 75.2286C178.366 82.0744 175.64 87.4824 170.481 90.8614C168.002 92.3792 163.697 94.0208 160.145 94.0208Z" fill="#21313C"/>
<path d="M289.201 61.7046C287.758 61.6719 286.338 62.071 285.123 62.8509C282.162 64.6522 280.654 68.2509 280.654 73.5391C280.654 83.4364 285.606 90.3502 292.697 90.3502C294.604 90.4146 296.465 89.7571 297.909 88.5089C300.088 86.7316 301.241 83.0969 301.241 78.0085C301.241 68.2589 296.404 61.7046 289.201 61.7046ZM290.566 94.0208C277.756 94.0208 273.195 84.6147 273.195 75.8197C273.195 69.6648 275.705 64.8639 280.661 61.5289C284.128 59.3783 288.109 58.2002 292.186 58.1179C301.959 58.1179 308.787 65.1555 308.787 75.2246C308.787 82.0784 306.062 87.4824 300.902 90.8574C298.424 92.3792 294.118 94.0208 290.566 94.0208Z" fill="#21313C"/>
<path d="M246.071 61.3691C242.124 61.3691 239.57 64.4885 239.57 69.3173C239.57 74.1462 241.769 79.8857 247.95 79.8857C249.012 79.8857 250.935 79.4144 251.889 78.3639C253.326 77.0419 254.283 74.3099 254.283 71.4262C254.283 65.1275 251.219 61.3691 246.091 61.3691M245.58 94.6957C244.465 94.6835 243.366 94.9586 242.387 95.4945C239.263 97.4916 237.814 99.4886 237.814 101.809C237.814 103.982 238.656 105.711 240.468 107.245C242.663 109.106 245.624 110.013 249.515 110.013C257.173 110.013 260.605 105.891 260.605 101.809C260.605 98.9654 259.18 97.0602 256.247 95.9818C253.988 95.155 250.213 94.6997 245.592 94.6997M246.103 114.271C241.506 114.271 238.193 113.3 235.364 111.119C232.61 108.995 231.373 105.839 231.373 103.658C231.403 102.253 231.939 100.906 232.882 99.8641C233.68 98.9534 235.536 97.2479 239.825 94.2963C239.892 94.268 239.949 94.2207 239.988 94.1603C240.028 94.0999 240.049 94.0291 240.049 93.9568C240.05 93.8761 240.024 93.7973 239.975 93.7334C239.926 93.6695 239.856 93.6244 239.778 93.6053C236.246 92.2513 235.18 90.0107 234.857 88.8124C234.857 88.7685 234.857 88.7006 234.821 88.6247C234.721 88.1534 234.626 87.7061 235.268 87.2468C235.763 86.8953 236.553 86.424 237.399 85.9247C238.593 85.2631 239.739 84.5169 240.827 83.692C240.886 83.6291 240.929 83.5536 240.954 83.4714C240.979 83.3891 240.984 83.3022 240.971 83.2174C240.957 83.1326 240.924 83.0521 240.874 82.9821C240.824 82.912 240.759 82.8543 240.683 82.8133C235.456 81.0559 232.822 77.1697 232.822 71.2305C232.806 69.3784 233.236 67.5499 234.077 65.8999C234.918 64.2499 236.144 62.8272 237.651 61.7525C239.754 60.087 245.033 58.0859 248.453 58.0859H248.653C252.168 58.1698 254.152 58.9087 256.897 59.9232C258.459 60.4884 260.114 60.7514 261.774 60.6981C264.683 60.6981 265.956 59.7754 267.049 58.701C267.227 59.185 267.321 59.6954 267.329 60.2108C267.396 61.4389 267.062 62.6554 266.379 63.6777C265.784 64.5044 264.384 65.1035 263.103 65.1035C262.971 65.1035 262.843 65.1035 262.704 65.0836C262.03 65.0361 261.362 64.9251 260.708 64.7521L260.381 64.8679C260.277 65.0197 260.345 65.1874 260.429 65.4031C260.45 65.4453 260.466 65.4894 260.477 65.5349C260.71 66.6009 260.869 67.6819 260.952 68.7701C260.952 74.9809 258.506 77.6849 255.86 79.6899C253.302 81.6109 250.264 82.7885 247.08 83.0929C247.013 83.0929 246.681 83.1209 246.059 83.1768C245.66 83.2127 245.141 83.2607 245.065 83.2607H244.989C244.415 83.4204 242.914 84.1354 242.914 85.4654C242.914 86.5678 243.593 87.9377 246.837 88.1854L248.936 88.3331C253.214 88.6327 258.557 89.0042 261.072 89.8549C262.739 90.4418 264.18 91.5402 265.188 92.9937C266.196 94.4472 266.72 96.1819 266.686 97.9509C266.686 103.523 262.728 108.763 256.099 111.966C252.973 113.46 249.551 114.229 246.087 114.215" fill="#21313C"/>
<path d="M226.493 90.2902C224.617 90.0386 223.248 89.7829 221.632 89.0241C221.315 88.6953 221.106 88.2771 221.034 87.8258C220.862 85.2097 220.862 77.617 220.862 72.6483C220.862 68.5943 220.184 65.0596 218.468 62.5233C216.421 59.6516 213.523 57.9661 209.772 57.9661C206.448 57.9661 202.014 60.2427 198.351 63.3661C198.263 63.4499 197.701 63.9851 197.713 63.1544C197.724 62.3236 197.852 60.6381 197.932 59.5597C197.967 59.2732 197.935 58.9824 197.838 58.7105C197.741 58.4386 197.582 58.1932 197.373 57.994C194.979 59.1922 188.263 60.7899 185.777 61.0335C183.965 61.385 183.506 63.1304 185.441 63.7335H185.469C187.019 64.1611 188.497 64.8123 189.859 65.6667C190.625 66.2578 190.541 67.1005 190.541 67.7755C190.625 73.4272 190.625 82.1183 190.37 86.8433C190.286 88.7005 189.771 89.3755 188.406 89.715L188.534 89.6711C187.495 89.9318 186.441 90.1292 185.378 90.2622C184.951 90.6816 184.951 93.13 185.378 93.6372C186.231 93.6372 190.565 93.3856 194.157 93.3856C199.097 93.3856 201.655 93.6372 202.936 93.6372C203.451 93.0461 203.619 90.7695 203.279 90.2622C202.099 90.2088 200.927 90.0389 199.78 89.755C198.419 89.4195 198.076 88.7405 197.992 87.2267C197.824 83.2566 197.824 74.8211 197.824 69.0816C197.824 67.484 198.247 66.7211 198.758 66.2857C200.462 64.768 203.279 63.7575 205.75 63.7575C208.144 63.7575 209.74 64.5164 210.937 65.5269C212.332 66.7447 213.206 68.4517 213.38 70.2958C213.719 73.4911 213.631 79.9176 213.631 85.4733C213.631 88.5128 213.38 89.2757 212.27 89.6112C211.759 89.8628 210.395 90.1185 208.775 90.2862C208.264 90.7934 208.431 93.154 208.775 93.6612C210.989 93.6612 213.563 93.4096 217.298 93.4096C221.987 93.4096 224.972 93.6612 226.166 93.6612C226.676 93.0701 226.848 90.8653 226.509 90.2862" fill="#21313C"/>
</svg>
