<svg width="243" height="145" viewBox="0 0 243 145" fill="none" xmlns="http://www.w3.org/2000/svg">
<g clip-path="url(#clip0_1_122)">
<path d="M57.2308 38.1585H102.788V41.762H61.4069V68.8833H100.32V72.4868H61.4069V102.263H103.262V105.867H57.2308V38.1585ZM106.869 38.1585H111.709L133.159 67.935L155.083 38.1585L184.904 0.335449L135.911 71.0643L161.157 105.867H156.127L133.159 74.1937L110.096 105.867H105.16L130.596 71.0643L106.869 38.1585ZM162.961 41.762V38.1585H214.877V41.762H190.959V105.867H186.783V41.762H162.961Z" fill="white"/>
<path d="M0.237305 38.1584H5.45736L77.4389 145.354L47.6924 105.867L4.60317 43.2792L4.41335 105.867H0.237305V38.1584Z" fill="white"/>
<path d="M214.456 101.176C215.319 101.176 215.949 100.518 215.949 99.6677C215.949 98.8175 215.319 98.1596 214.456 98.1596C213.603 98.1596 212.963 98.8175 212.963 99.6677C212.963 100.518 213.603 101.176 214.456 101.176ZM218.559 97.2082C218.559 99.7183 220.377 101.358 223.028 101.358C225.852 101.358 227.558 99.6677 227.558 96.7325V86.3984H225.283V96.7224C225.283 98.3519 224.46 99.2224 223.008 99.2224C221.708 99.2224 220.824 98.4126 220.794 97.2082H218.559ZM230.534 97.0766C230.697 99.6879 232.881 101.358 236.131 101.358C239.605 101.358 241.778 99.607 241.778 96.8134C241.778 94.6171 240.539 93.4025 237.533 92.7041L235.918 92.3094C234.008 91.864 233.236 91.2669 233.236 90.2244C233.236 88.9086 234.435 88.0482 236.233 88.0482C237.939 88.0482 239.117 88.8883 239.33 90.2345H241.545C241.413 87.775 239.239 86.0442 236.263 86.0442C233.064 86.0442 230.931 87.775 230.931 90.3762C230.931 92.5219 232.139 93.7972 234.79 94.4147L236.679 94.8701C238.619 95.3256 239.473 95.9936 239.473 97.107C239.473 98.4025 238.132 99.3438 236.304 99.3438C234.343 99.3438 232.982 98.4632 232.789 97.0766H230.534Z" fill="white"/>
</g>
<defs>
<clipPath id="clip0_1_122">
<rect width="242.056" height="145" fill="white"/>
</clipPath>
</defs>
</svg>
