<svg width="278" height="75" viewBox="0 0 278 75" fill="none" xmlns="http://www.w3.org/2000/svg">
<g clip-path="url(#clip0_1_79)">
<path fill-rule="evenodd" clip-rule="evenodd" d="M140.587 9.97964e-05C140.395 0.00244341 140.201 0.0482505 140.03 0.148721C139.688 0.349507 139.472 0.718258 139.472 1.11479V29.5393C139.472 29.8186 139.342 30.0681 139.101 30.2082C138.859 30.3486 138.563 30.3486 138.32 30.2082L133.676 27.5329C132.984 27.1339 132.139 27.1342 131.447 27.5329L112.906 38.234C112.212 38.6338 111.791 39.4031 111.791 40.2032V61.6052C111.791 62.4047 112.213 63.1367 112.906 63.5373L131.447 74.2383C132.14 74.6383 132.983 74.6383 133.676 74.2383L152.217 63.5373C152.909 63.1367 153.332 62.4047 153.332 61.6052V8.24881C153.332 7.43716 152.889 6.67545 152.18 6.27951L141.144 0.111573C140.971 0.0149084 140.779 -0.00197074 140.587 0.000171318V9.97964e-05ZM21.3154 26.7154C20.9618 26.7297 20.6296 26.7915 20.3122 26.9755L1.77118 37.6766C1.08031 38.0759 0.656494 38.8034 0.656494 39.6087L0.693571 68.3304C0.693571 68.7299 0.899672 69.1009 1.25092 69.2966C1.59519 69.5027 2.0225 69.5027 2.36561 69.2966L13.3639 62.9799C14.0605 62.566 14.5157 61.8461 14.5157 61.0478V47.6344C14.5157 46.8344 14.9366 46.1 15.6304 45.7023L20.3121 42.99C20.6615 42.7879 21.0366 42.6927 21.4268 42.6927C21.8089 42.6927 22.2017 42.7878 22.5415 42.99L27.2231 45.7023C27.9169 46.1 28.3378 46.8344 28.3378 47.6344V61.0478C28.3378 61.8461 28.7975 62.5707 29.4897 62.9799L40.4879 69.2966C40.8333 69.5027 41.26 69.5027 41.6026 69.2966C41.944 69.1009 42.16 68.7299 42.16 68.3304L42.197 39.6087C42.197 38.8034 41.7779 38.0759 41.0824 37.6766L22.5414 26.9755C22.2278 26.7915 21.8942 26.7299 21.5382 26.7154H21.3153H21.3154ZM187.924 26.9755C187.537 26.9751 187.157 27.0731 186.809 27.2728L168.268 37.9738C167.576 38.3738 167.154 39.1058 167.154 39.9059V61.3079C167.154 62.1126 167.607 62.8423 168.306 63.2401L186.698 73.7181C187.377 74.106 188.206 74.135 188.89 73.755L200.037 67.5498C200.391 67.3536 200.63 66.9872 200.632 66.5838C200.634 66.1802 200.423 65.8185 200.074 65.6177L181.422 54.9167C181.072 54.7175 180.827 54.314 180.827 53.9134V47.2253C180.827 46.8254 181.075 46.459 181.422 46.2593L187.218 42.9151C187.563 42.7156 187.986 42.7156 188.333 42.9151L194.129 46.2593C194.475 46.459 194.687 46.8254 194.687 47.2253V52.5016C194.687 52.9021 194.898 53.2679 195.244 53.4675C195.592 53.6678 196.012 53.6686 196.359 53.4675L207.468 47.0025C208.158 46.6019 208.583 45.8679 208.583 45.0703V39.9056C208.583 39.1079 208.159 38.374 207.468 37.9734L189.039 27.2724C188.692 27.0713 188.311 26.9756 187.924 26.9752V26.9755ZM132.487 42.9527C132.584 42.9527 132.697 42.9765 132.784 43.0265L139.138 46.705C139.31 46.8049 139.435 46.9888 139.435 47.188V54.5449C139.435 54.7447 139.311 54.9287 139.138 55.028L132.784 58.7064C132.611 58.8051 132.4 58.8051 132.227 58.7064L125.873 55.028C125.7 54.9281 125.576 54.7447 125.576 54.5449V47.188C125.576 46.9888 125.701 46.8054 125.873 46.705L132.227 43.0271C132.314 42.9771 132.39 42.9533 132.487 42.9533V42.9527Z" fill="#404137"/>
<path fill-rule="evenodd" clip-rule="evenodd" d="M243.473 26.4553C242.83 26.4553 242.205 26.5883 241.652 26.9012L224.151 37.0077C223.019 37.6598 222.331 38.8923 222.331 40.2031V60.3791C222.331 61.6892 223.019 62.9203 224.151 63.5744L228.722 66.2125C230.942 67.3069 231.761 67.29 232.772 67.29C236.059 67.29 237.936 65.2952 237.936 61.8281V41.9123C237.936 41.6308 237.693 41.4292 237.416 41.4292H235.224C234.943 41.4292 234.704 41.6308 234.704 41.9123V61.8281C234.704 63.3649 233.103 64.9104 230.505 63.6116L225.749 60.8249C225.581 60.7334 225.452 60.5718 225.452 60.3791V40.2031C225.452 40.0116 225.58 39.8171 225.749 39.7202L243.213 29.6508C243.376 29.5568 243.571 29.5568 243.733 29.6508L261.196 39.7202C261.363 39.82 261.493 40.0058 261.493 40.2031V60.3791C261.493 60.5718 261.397 60.7692 261.233 60.862L243.733 70.9314C243.583 71.0206 243.376 71.0206 243.213 70.9314L238.717 68.2562C238.583 68.1777 238.4 68.1837 238.271 68.2562C237.03 68.9597 236.796 69.0415 235.633 69.4452C235.346 69.5451 234.91 69.7005 235.781 70.1883L241.652 73.6438C242.211 73.9672 242.834 74.1268 243.473 74.1268C244.121 74.1268 244.735 73.9672 245.293 73.6438L262.794 63.5744C263.926 62.9157 264.615 61.6892 264.615 60.3791V40.2031C264.615 38.8923 263.926 37.6625 262.794 37.0077L245.293 26.9012C244.745 26.5883 244.115 26.4553 243.473 26.4553ZM77.0126 26.864C76.6262 26.864 76.2439 26.9615 75.8979 27.1612L57.3569 37.8251C56.6638 38.2246 56.2422 38.995 56.2422 39.7944V61.1964C56.2422 61.9967 56.6642 62.7282 57.3569 63.1285L75.8979 73.8295C76.5911 74.2298 77.4341 74.2298 78.1273 73.8295L96.6683 63.1285C97.3603 62.7282 97.783 61.9967 97.783 61.1964V39.7944C97.783 38.9938 97.3614 38.2246 96.6683 37.8251L78.1273 27.1612C77.7813 26.9615 77.3989 26.864 77.0126 26.864ZM269.445 26.9758V27.496H270.894V31.323H271.488V27.496H272.975V26.9758H269.445ZM273.495 26.9758V31.323H274.052V28.7593C274.052 28.6546 274.057 28.4928 274.052 28.2763C274.045 28.0557 274.052 27.8635 274.052 27.756V27.6442L275.278 31.3226H275.873L277.136 27.6442C277.136 27.8782 277.105 28.1041 277.099 28.313C277.097 28.5163 277.099 28.669 277.099 28.7589V31.3226H277.657V26.9754H276.839L275.576 30.6539L274.35 26.9754H273.495L273.495 26.9758ZM248.154 40.8722C243.171 40.8722 240.203 42.993 240.203 46.52C240.203 50.346 243.149 51.3972 247.931 51.8705C253.653 52.4306 254.099 53.2707 254.099 54.3971C254.099 56.3507 252.542 57.1838 248.86 57.1838C244.235 57.1838 243.219 56.0291 242.878 53.7283C242.838 53.4816 242.648 53.2824 242.395 53.2824H240.129C239.849 53.2824 239.608 53.5227 239.608 53.8026C239.608 56.7477 241.211 60.2307 248.86 60.2307C254.398 60.2307 257.592 58.057 257.592 54.2485C257.592 50.4729 255.012 49.4595 249.641 48.7493C244.213 48.0312 243.696 47.6797 243.696 46.4086C243.696 45.3593 244.134 43.9561 248.154 43.9561C251.745 43.9561 253.072 44.7305 253.616 47.1517C253.664 47.3792 253.865 47.5603 254.099 47.5603H256.366C256.506 47.5603 256.641 47.4747 256.737 47.3745C256.833 47.2675 256.899 47.1469 256.886 47.003C256.535 42.8333 253.755 40.8722 248.154 40.8722ZM187.887 45.9627C187.813 45.9627 187.731 45.9627 187.664 45.9995L184.097 48.0803C183.963 48.1564 183.874 48.298 183.874 48.4518V52.539C183.874 52.6929 183.963 52.8339 184.097 52.9106L187.664 54.9541C187.798 55.0314 187.94 55.0314 188.073 54.9541L191.64 52.9106C191.772 52.8345 191.863 52.6929 191.863 52.539V48.4518C191.863 48.298 191.772 48.1568 191.64 48.0803L188.073 45.9995C188.007 45.9603 187.961 45.9627 187.887 45.9627Z" fill="#83CD29"/>
</g>
<defs>
<clipPath id="clip0_1_79">
<rect width="277" height="74.5383" fill="white" transform="translate(0.656494)"/>
</clipPath>
</defs>
</svg>
