<svg width="269" height="79" viewBox="0 0 269 79" fill="none" xmlns="http://www.w3.org/2000/svg">
<path d="M92.8304 24.9159H100.713L117.418 51.6251V24.9159H124.694V62.7615H116.865L100.107 36.1079V62.7615H92.8304V24.9159Z" fill="white"/>
<path d="M157.219 62.7615H150.438V58.5341C148.895 61.5092 145.753 63.1842 141.785 63.1842C135.5 63.1842 131.419 58.7507 131.419 52.3701V35.5107H138.2V50.9751C138.2 54.7057 140.516 57.3003 143.988 57.3003C147.793 57.3003 150.438 54.3807 150.438 50.3805V35.5107H157.219V62.7615Z" fill="white"/>
<path d="M180.813 62.3307L174.309 53.2472L167.803 62.3307H160.58L170.615 48.1108L161.353 35.08H168.74L174.309 42.9217L179.819 35.08H187.263L177.945 48.1108L187.979 62.3307H180.813Z" fill="white"/>
<path d="M201.762 27.2932V35.5102H209.481V41.0798H201.762V54.6074C201.762 55.0617 201.945 55.4976 202.273 55.819C202.6 56.1405 203.044 56.3215 203.508 56.3222H209.481V62.7505H205.014C198.949 62.7505 194.981 59.2893 194.981 53.2389V41.0852H189.524V35.5102H192.948C194.545 35.5102 195.475 34.5776 195.475 33.0346V27.2932H201.762Z" fill="white"/>
<path d="M226.573 54.1905V24.9159H233.847V51.9474C233.847 59.2475 230.264 62.7615 224.2 62.7615H215.733V56.3332H224.389C224.967 56.3332 225.524 56.1075 225.933 55.7057C226.343 55.3038 226.573 54.7588 226.573 54.1905Z" fill="white"/>
<path d="M238.205 50.0554H245.209C245.597 54.2827 248.464 56.975 253.095 56.975C257.229 56.975 260.099 55.3554 260.099 52.0026C260.099 43.8913 239.356 49.5137 239.356 35.0243C239.361 28.8075 244.819 24.4875 252.661 24.4875C260.821 24.4875 266.333 29.0822 266.669 36.1657H259.703C259.375 32.8684 256.74 30.6516 252.647 30.6516C248.843 30.6516 246.473 32.3822 246.473 35.0297C246.473 43.4105 267.486 37.1433 267.486 51.8996C267.486 58.9275 261.585 63.1999 253.097 63.1999C244.332 63.1999 238.599 58.0081 238.214 50.0606" fill="white"/>
<path fill-rule="evenodd" clip-rule="evenodd" d="M36.2157 17.3326C34.1805 13.8331 29.0924 13.8331 27.0571 17.3326L4.87589 55.4714C2.84063 58.971 5.3847 63.3452 9.45523 63.3452H26.7711C25.0318 61.8252 24.3876 59.1954 25.7039 56.9392L42.5029 28.143L36.2157 17.3326Z" fill="#80EEC0"/>
<path d="M50.2702 25.6984C51.9546 22.8352 56.1654 22.8352 57.8498 25.6984L76.2066 56.9028C77.891 59.766 75.7856 63.3451 72.4168 63.3451H35.7032C32.3345 63.3451 30.229 59.766 31.9134 56.9028L50.2702 25.6984Z" fill="#00DC82"/>
</svg>
