<svg width="138" height="134" viewBox="0 0 138 134" fill="none" xmlns="http://www.w3.org/2000/svg">
<g clip-path="url(#clip0_1_160)">
<path d="M24.6197 0H113.38C126.838 0 137.718 10.8803 137.718 24.3376V109.662C137.718 123.12 126.838 134 113.38 134H24.6197C11.1624 134 0.282104 123.12 0.282104 109.662V24.3376C0.282104 10.8803 11.1624 0 24.6197 0Z" fill="#001E36"/>
<path d="M31.2052 93.9719V35.0463C31.2052 34.6454 31.377 34.4163 31.7778 34.4163C32.7513 34.4163 33.6676 34.4163 34.9847 34.3591C36.359 34.3018 37.7906 34.3018 39.3368 34.2445C40.8829 34.1873 42.5436 34.1873 44.3188 34.13C46.0941 34.0728 47.812 34.0728 49.53 34.0728C54.2257 34.0728 58.1197 34.6454 61.3265 35.848C64.1898 36.8215 66.824 38.4249 69 40.5437C70.8325 42.3762 72.2641 44.6095 73.1804 47.0719C74.0394 49.477 74.4975 51.9394 74.4975 54.5163C74.4975 59.4411 73.3522 63.5069 71.0616 66.7138C68.771 69.9206 65.5641 72.3257 61.8419 73.7001C57.9479 75.1317 53.653 75.6471 48.9573 75.6471C47.5829 75.6471 46.6667 75.6471 46.0941 75.5898C45.5214 75.5326 44.7197 75.5326 43.6317 75.5326V93.9146C43.6889 94.3155 43.4026 94.6591 43.0018 94.7163C42.9445 94.7163 42.8872 94.7163 42.7727 94.7163H31.8923C31.4342 94.7163 31.2052 94.4873 31.2052 93.9719ZM43.6889 45.4685V64.7095C44.4906 64.7668 45.2351 64.824 45.9223 64.824H48.9573C51.1906 64.824 53.424 64.4804 55.5428 63.7933C57.3753 63.2779 58.9787 62.1898 60.2385 60.7582C61.4411 59.3266 62.0137 57.3796 62.0137 54.8599C62.071 53.0847 61.6129 51.3095 60.6966 49.7634C59.7231 48.2745 58.3488 47.1292 56.6881 46.4992C54.5693 45.6403 52.2787 45.2967 49.9308 45.3539C48.4419 45.3539 47.1248 45.354 46.0368 45.4112C44.8915 45.354 44.0898 45.4112 43.6889 45.4685Z" fill="#31A8FF"/>
<path d="M110.231 61.2163C108.513 60.3001 106.68 59.6701 104.733 59.2693C102.615 58.8112 100.496 58.5248 98.3197 58.5248C97.1744 58.4676 95.9719 58.6394 94.8838 58.9257C94.1394 59.0975 93.5095 59.4983 93.1086 60.071C92.8223 60.5291 92.6505 61.1018 92.6505 61.6171C92.6505 62.1325 92.8795 62.6479 93.2231 63.106C93.7385 63.7359 94.4257 64.2513 95.1701 64.6522C96.4872 65.3394 97.8616 65.9693 99.236 66.5419C102.328 67.5727 105.306 69.0043 108.055 70.7223C109.945 71.9248 111.491 73.5283 112.579 75.4753C113.495 77.3077 113.953 79.312 113.896 81.3736C113.953 84.065 113.151 86.7565 111.662 88.9898C110.059 91.2804 107.826 93.0556 105.249 94.0864C102.443 95.2889 99.0069 95.9189 94.8838 95.9189C92.2496 95.9189 89.6727 95.6898 87.0958 95.1744C85.0915 94.8308 83.0872 94.2009 81.2548 93.3419C80.8539 93.1129 80.5676 92.712 80.6249 92.2539V82.2898C80.6249 82.118 80.6821 81.8889 80.8539 81.7744C81.0257 81.6599 81.1975 81.7171 81.3693 81.8317C83.6026 83.1488 85.9505 84.065 88.4701 84.6377C90.6462 85.2103 92.9368 85.4966 95.2274 85.4966C97.4035 85.4966 98.9496 85.2103 99.9804 84.6949C100.897 84.2941 101.527 83.3206 101.527 82.2898C101.527 81.4881 101.068 80.7436 100.152 79.9992C99.236 79.2548 97.3462 78.3958 94.5402 77.3077C91.6197 76.277 88.9283 74.9026 86.4086 73.1847C84.6334 71.9248 83.1445 70.2642 82.0565 68.3172C81.1402 66.4847 80.6821 64.4804 80.7394 62.4761C80.7394 60.0137 81.4266 57.6659 82.6864 55.5471C84.118 53.2565 86.2368 51.424 88.6992 50.2787C91.3907 48.9043 94.7693 48.2744 98.8351 48.2744C101.183 48.2744 103.588 48.4462 105.936 48.7898C107.654 49.0189 109.315 49.477 110.861 50.1069C111.09 50.1642 111.319 50.3932 111.433 50.6223C111.491 50.8513 111.548 51.0804 111.548 51.3095V60.6436C111.548 60.8727 111.433 61.1018 111.262 61.2163C110.746 61.3308 110.46 61.3308 110.231 61.2163Z" fill="#31A8FF"/>
</g>
<defs>
<clipPath id="clip0_1_160">
<rect width="137.436" height="134" fill="white" transform="translate(0.282104)"/>
</clipPath>
</defs>
</svg>
