<svg width="173" height="178" viewBox="0 0 173 178" fill="none" xmlns="http://www.w3.org/2000/svg">
<g clip-path="url(#clip0_1_55)">
<path d="M129.171 129.579C130.303 120.147 129.964 118.764 136.989 120.292L138.773 120.448C144.175 120.694 151.242 119.58 155.393 117.651C164.331 113.504 169.63 106.58 160.818 108.4C140.716 112.546 139.334 105.74 139.334 105.74C160.56 74.2458 169.433 34.267 161.774 24.481C140.884 -2.21164 104.724 10.4107 104.119 10.7384L103.927 10.774C99.9548 9.94989 95.5098 9.45752 90.5165 9.37678C81.4199 9.22731 74.5175 11.7615 69.2816 15.7329C69.2816 15.7329 4.77388 -10.8434 7.77489 49.1553C8.41314 61.9188 26.07 145.734 47.129 120.418C54.826 111.161 62.2644 103.334 62.2644 103.334C65.958 105.787 70.3802 107.039 75.0182 106.59L75.3767 106.284C75.2644 107.433 75.314 108.557 75.5202 109.888C70.0961 115.95 71.6899 117.014 60.8436 119.247C49.8703 121.508 56.3171 125.535 60.5251 126.587C65.6279 127.863 77.4325 129.671 85.4109 118.504L85.0932 119.779C87.2213 121.481 87.0774 132.016 87.3792 139.542C87.6813 147.069 88.1853 154.093 89.7196 158.235C91.2539 162.375 93.0643 173.042 107.319 169.987C119.232 167.434 128.341 163.76 129.171 129.579" fill="black"/>
<path d="M129.171 129.579C130.303 120.147 129.964 118.764 136.989 120.292L138.773 120.448C144.175 120.694 151.242 119.58 155.393 117.651C164.331 113.504 169.63 106.58 160.818 108.4C140.716 112.546 139.334 105.74 139.334 105.74C160.56 74.2457 169.433 34.267 161.774 24.481C140.884 -2.21164 104.724 10.4107 104.119 10.7384L103.927 10.774C99.9548 9.94989 95.5098 9.45752 90.5165 9.37678C81.4199 9.22731 74.5175 11.7615 69.2816 15.7329C69.2816 15.7329 4.77388 -10.8434 7.77489 49.1554C8.41314 61.9188 26.0699 145.734 47.129 120.418C54.826 111.161 62.2644 103.334 62.2644 103.334C65.958 105.787 70.3802 107.039 75.0182 106.59L75.3767 106.284C75.2644 107.433 75.314 108.557 75.5202 109.888C70.0961 115.95 71.6899 117.014 60.8436 119.247C49.8703 121.508 56.3171 125.535 60.5251 126.587C65.6279 127.863 77.4325 129.671 85.4109 118.504L85.0932 119.779C87.2213 121.481 87.0774 132.016 87.3792 139.542C87.6813 147.069 88.1853 154.093 89.7196 158.235C91.2539 162.375 93.0643 173.042 107.319 169.987C119.232 167.434 128.341 163.76 129.171 129.579" stroke="black" stroke-width="14.9453"/>
<path d="M160.82 108.399C140.716 112.545 139.334 105.739 139.334 105.739C160.56 74.2428 169.433 34.2632 161.776 24.4784C140.886 -2.2126 104.724 10.4105 104.121 10.7383L103.927 10.773C99.9548 9.94853 95.5098 9.45736 90.5141 9.37583C81.4175 9.22676 74.5174 11.7606 69.2815 15.7312C69.2815 15.7312 4.77267 -10.844 7.77289 49.1544C8.41114 61.9186 26.0675 145.734 47.1274 120.418C54.8248 111.161 62.262 103.333 62.262 103.333C65.956 105.787 70.3782 107.039 75.0142 106.589L75.3743 106.284C75.2624 107.433 75.3136 108.557 75.5186 109.888C70.0932 115.95 71.6875 117.014 60.842 119.246C49.8679 121.508 56.3147 125.535 60.5239 126.587C65.6267 127.863 77.4321 129.671 85.4089 118.504L85.0907 119.778C87.2165 121.481 88.7092 130.853 88.459 139.349C88.2089 147.845 88.0418 153.678 89.7168 158.235C91.3917 162.791 93.0611 173.042 107.318 169.987C119.232 167.434 125.405 160.818 126.264 149.782C126.874 141.937 128.253 143.096 128.34 136.082L129.446 132.761C130.722 122.126 129.649 118.695 136.988 120.291L138.772 120.447C144.174 120.693 151.245 119.579 155.394 117.65C164.33 113.503 169.629 106.579 160.819 108.399H160.82Z" fill="#336791"/>
<path d="M86.2721 114.495C85.7186 134.284 86.4112 154.212 88.3475 159.055C90.2851 163.898 94.4315 173.318 108.69 170.263C120.602 167.709 124.936 162.767 126.817 151.859C128.202 143.833 130.873 121.543 131.215 116.976" stroke="white" stroke-width="4.98175" stroke-linecap="round" stroke-linejoin="round"/>
<path d="M69.1821 15.2893C69.1821 15.2893 4.62922 -11.0944 7.63023 48.904C8.26848 61.6682 25.9261 145.486 46.9856 120.169C54.6813 110.911 61.6413 103.649 61.6413 103.649" stroke="white" stroke-width="4.98175" stroke-linecap="round" stroke-linejoin="round"/>
<path d="M104.05 10.4738C101.816 11.1744 139.958 -3.46976 161.635 24.2288C169.292 34.014 160.419 73.9936 139.193 105.49" stroke="white" stroke-width="4.98175" stroke-linecap="round" stroke-linejoin="round"/>
<path d="M139.193 105.49C139.193 105.49 140.576 112.299 160.68 108.149C169.489 106.33 164.187 113.255 155.254 117.403C147.922 120.806 131.485 121.678 131.216 116.976C130.525 104.845 139.868 108.53 139.193 105.49C138.584 102.753 134.406 100.066 131.642 93.3657C129.23 87.5175 98.5524 42.6697 140.15 49.3304C141.674 49.0151 129.301 9.76364 90.3714 9.12539C51.4509 8.48713 52.7278 56.989 52.7278 56.989" stroke="white" stroke-width="4.98175" stroke-linecap="round" stroke-linejoin="bevel"/>
<path d="M75.3767 109.639C69.9506 115.7 71.5464 116.765 60.7001 118.998C49.726 121.26 56.1736 125.286 60.3816 126.338C65.4844 127.614 77.2899 129.422 85.2666 118.253C87.6957 114.852 85.2522 109.426 81.9155 108.043C80.3033 107.375 78.1475 106.538 75.3767 109.639V109.639Z" stroke="white" stroke-width="4.98175" stroke-linecap="round" stroke-linejoin="round"/>
<path d="M75.0214 109.533C74.4747 105.97 76.1924 101.729 78.0333 96.7674C80.7997 89.3234 87.1826 81.8782 82.0766 58.265C78.2707 40.6685 52.7434 54.6029 52.7274 56.9889C52.7118 59.374 53.882 69.0825 52.301 80.3879C50.238 95.1404 61.6881 107.617 74.8732 106.341" stroke="white" stroke-width="4.98175" stroke-linecap="round" stroke-linejoin="round"/>
<path d="M68.9475 56.6312C68.8324 57.4461 70.4394 59.6207 72.5348 59.9112C74.6266 60.203 76.4171 58.5036 76.5306 57.6895C76.6441 56.8746 75.0391 55.977 72.9429 55.6852C70.8499 55.3931 69.0586 55.8183 68.9479 56.6312H68.9475Z" fill="white" stroke="white" stroke-width="1.66057"/>
<path d="M132.662 54.9699C132.776 55.7848 131.171 57.9594 129.075 58.2499C126.981 58.5417 125.191 56.8423 125.076 56.0282C124.966 55.2133 126.571 54.3157 128.665 54.024C130.759 53.7322 132.549 54.157 132.662 54.9703V54.9699Z" fill="white" stroke="white" stroke-width="0.830285"/>
<path d="M140.15 49.3303C140.495 55.7224 138.773 60.0763 138.556 66.8808C138.235 76.7715 143.271 88.0922 135.682 99.4268" stroke="white" stroke-width="4.98175" stroke-linecap="round" stroke-linejoin="round"/>
</g>
<defs>
<clipPath id="clip0_1_55">
<rect width="172.68" height="178" fill="white"/>
</clipPath>
</defs>
</svg>
