<svg width="139" height="134" viewBox="0 0 139 134" fill="none" xmlns="http://www.w3.org/2000/svg">
<g clip-path="url(#clip0_1_170)">
<path d="M25.1838 0H113.944C127.402 0 138.282 10.8803 138.282 24.3376V109.662C138.282 123.12 127.402 134 113.944 134H25.1838C11.7265 134 0.846191 123.12 0.846191 109.662V24.3376C0.846191 10.8803 11.7265 0 25.1838 0Z" fill="#00005B"/>
<path d="M33.4872 93.9147V34.9318C33.4872 34.5309 33.659 34.3018 34.0599 34.3018C35.0334 34.3018 35.9496 34.3018 37.2667 34.2446C38.6411 34.1873 40.0727 34.1873 41.6188 34.13C43.165 34.0728 44.8257 34.0728 46.6009 34.0155C48.3761 33.9583 50.0941 33.9583 51.812 33.9583C56.5077 33.9583 60.4017 34.5309 63.6086 35.7335C66.4718 36.707 69.106 38.3104 71.2821 40.4292C73.1146 42.2617 74.5462 44.495 75.4624 46.9574C76.3214 49.3625 76.7795 51.8249 76.7795 54.4018C76.7795 59.3266 75.6342 63.3924 73.3436 66.5993C71.053 69.8061 67.8462 72.2112 64.124 73.5856C60.23 75.0172 55.9351 75.5326 51.2394 75.5326C49.865 75.5326 48.9488 75.5326 48.3761 75.4753C47.8035 75.4181 47.0017 75.4181 45.9137 75.4181V93.8001C45.971 94.201 45.6847 94.5446 45.2838 94.6018H45.0547H34.1744C33.7163 94.6018 33.4872 94.3728 33.4872 93.8574V93.9147ZM45.971 45.4112V64.6523C46.7727 64.7095 47.5171 64.7668 48.2043 64.7668H51.2394C53.4727 64.7668 55.706 64.4232 57.8248 63.736C59.6573 63.2206 61.2607 62.1326 62.5205 60.701C63.7231 59.2694 64.2958 57.3224 64.2958 54.8027C64.353 53.0275 63.8949 51.2523 62.9787 49.7061C62.0052 48.2172 60.6308 47.0719 58.9701 46.442C56.8513 45.583 54.5607 45.2394 52.2129 45.2967C50.724 45.2967 49.4069 45.2967 48.3188 45.354C47.1735 45.2967 46.3718 45.354 45.971 45.4112Z" fill="#9999FF"/>
<path d="M85.0257 48.7899H95.0471C95.6197 48.7899 96.0778 49.1907 96.2496 49.7061C96.4214 50.1642 96.5359 50.6224 96.5932 51.1377C96.7077 51.7104 96.8223 52.3403 96.8795 52.913C96.9368 53.5429 96.9941 54.2301 96.9941 54.9745C98.712 52.9702 100.774 51.3095 103.121 50.0497C105.756 48.5608 108.791 47.8164 111.826 47.8164C112.227 47.7591 112.57 48.0454 112.627 48.4463V48.6754V59.842C112.627 60.3001 112.341 60.4719 111.711 60.4719C109.65 60.4147 107.531 60.5865 105.527 61.0446C103.866 61.3882 102.262 61.9036 100.716 62.5907C99.6282 63.1061 98.5975 63.7933 97.7958 64.7095V93.9147C97.7958 94.4873 97.5667 94.7164 97.0513 94.7164H85.7701C85.312 94.7736 84.9112 94.4873 84.8539 94.0292V93.8001V62.0754C84.8539 60.701 84.8539 59.2694 84.7966 57.7805C84.7394 56.2916 84.7394 54.8027 84.6821 53.3138C84.6821 51.9967 84.5676 50.7369 84.453 49.4198C84.3958 49.1335 84.5676 48.8471 84.8539 48.7899C84.8539 48.7326 84.9684 48.7326 85.0257 48.7899Z" fill="#9999FF"/>
</g>
<defs>
<clipPath id="clip0_1_170">
<rect width="137.436" height="134" fill="white" transform="translate(0.846191)"/>
</clipPath>
</defs>
</svg>
