<svg width="171" height="152" viewBox="0 0 171 152" fill="none" xmlns="http://www.w3.org/2000/svg">
<g clip-path="url(#clip0_1_11)">
<path d="M85.4205 91.2271C93.8302 91.2271 100.648 84.4097 100.648 75.9999C100.648 67.5902 93.8302 60.7728 85.4205 60.7728C77.0108 60.7728 70.1934 67.5902 70.1934 75.9999C70.1934 84.4097 77.0108 91.2271 85.4205 91.2271Z" fill="#61DAFB"/>
<path fill-rule="evenodd" clip-rule="evenodd" d="M11.424 65.2847C7.52725 68.8024 5.63781 72.4266 5.63781 76C5.63781 79.5733 7.52725 83.1975 11.424 86.7152C15.3205 90.2326 21.0669 93.4885 28.3315 96.2623C42.8474 101.805 63.0308 105.273 85.4205 105.273C107.81 105.273 127.994 101.805 142.509 96.2623C149.774 93.4885 155.52 90.2326 159.417 86.7152C163.314 83.1975 165.203 79.5733 165.203 76C165.203 72.4266 163.314 68.8024 159.417 65.2847C155.52 61.7673 149.774 58.5114 142.509 55.7376C127.994 50.1952 107.81 46.7268 85.4205 46.7268C63.0308 46.7268 42.8474 50.1952 28.3315 55.7376C21.0669 58.5114 15.3205 61.7673 11.424 65.2847ZM26.959 52.143C42.015 46.3943 62.6848 42.879 85.4205 42.879C108.156 42.879 128.826 46.3943 143.882 52.143C151.403 55.0148 157.623 58.4813 161.995 62.4286C166.368 66.3756 169.051 70.9585 169.051 76C169.051 81.0414 166.368 85.6243 161.995 89.5713C157.623 93.5186 151.403 96.9851 143.882 99.8569C128.826 105.606 108.156 109.121 85.4205 109.121C62.6848 109.121 42.015 105.606 26.959 99.8569C19.4376 96.9851 13.2183 93.5186 8.84567 89.5713C4.47326 85.6243 1.79004 81.0414 1.79004 76C1.79004 70.9585 4.47326 66.3756 8.84567 62.4286C13.2183 58.4813 19.4376 55.0148 26.959 52.143Z" fill="#61DAFB"/>
<path fill-rule="evenodd" clip-rule="evenodd" d="M57.7019 6.55965C52.7071 4.94381 48.6238 5.11959 45.5291 6.90628C42.4345 8.69297 40.2406 12.1414 39.1426 17.2749C38.0446 22.4081 38.0981 29.0126 39.3283 36.6907C41.7863 52.0331 48.8743 71.2467 60.0692 90.6367C71.264 110.027 84.3594 125.772 96.4173 135.572C102.452 140.476 108.145 143.825 113.139 145.441C118.134 147.056 122.217 146.881 125.312 145.094C128.406 143.307 130.6 139.859 131.698 134.725C132.796 129.592 132.743 122.988 131.513 115.309C129.055 99.9671 121.967 80.7535 110.772 61.3635C99.577 41.9735 86.4815 26.2283 74.4236 16.4284C68.3892 11.524 62.6964 8.1754 57.7019 6.55965ZM76.8505 13.4425C89.357 23.607 102.736 39.75 114.104 59.4396C125.472 79.1293 132.762 98.7875 135.312 114.701C136.586 122.65 136.693 129.77 135.461 135.53C134.229 141.29 131.602 145.905 127.236 148.426C122.87 150.947 117.559 150.915 111.955 149.102C106.35 147.288 100.238 143.636 93.9905 138.558C81.4839 128.393 68.1047 112.25 56.7369 92.5606C45.3691 72.8709 38.0785 53.2127 35.529 37.2994C34.2553 29.3498 34.1478 22.2305 35.3799 16.4701C36.612 10.7099 39.2392 6.09474 43.6052 3.57402C47.9713 1.05329 53.2818 1.08559 58.8862 2.89869C64.491 4.71186 70.6027 8.36463 76.8505 13.4425Z" fill="#61DAFB"/>
<path fill-rule="evenodd" clip-rule="evenodd" d="M131.698 17.2749C130.6 12.1414 128.406 8.69301 125.312 6.90632C122.217 5.11963 118.134 4.94385 113.139 6.55969C108.145 8.17544 102.452 11.524 96.4173 16.4285C84.3594 26.2284 71.264 41.9736 60.0691 61.3636C48.8743 80.7536 41.7863 99.9672 39.3283 115.31C38.0981 122.988 38.0446 129.592 39.1426 134.725C40.2406 139.859 42.4345 143.307 45.5291 145.094C48.6237 146.881 52.7071 147.056 57.7019 145.441C62.6963 143.825 68.3892 140.476 74.4236 135.572C86.4815 125.772 99.5769 110.027 110.772 90.6367C121.967 71.2467 129.055 52.0331 131.513 36.6908C132.743 29.0126 132.796 22.4081 131.698 17.2749ZM135.312 37.2995C132.762 53.2127 125.472 72.871 114.104 92.5606C102.736 112.25 89.357 128.393 76.8504 138.558C70.6027 143.636 64.4909 147.288 58.8862 149.102C53.2817 150.915 47.9713 150.947 43.6052 148.426C39.2392 145.906 36.6119 141.29 35.3799 135.53C34.1478 129.77 34.2553 122.65 35.5289 114.701C38.0785 98.7876 45.369 79.1293 56.7369 59.4397C68.1047 39.75 81.4839 23.6071 93.9905 13.4425C100.238 8.36467 106.35 4.7119 111.955 2.89873C117.559 1.08564 122.87 1.05333 127.236 3.57406C131.602 6.09478 134.229 10.7099 135.461 16.4701C136.693 22.2305 136.586 29.3498 135.312 37.2995Z" fill="#61DAFB"/>
</g>
<defs>
<clipPath id="clip0_1_11">
<rect width="170.841" height="152" fill="white"/>
</clipPath>
</defs>
</svg>
