<svg width="201" height="178" viewBox="0 0 201 178" fill="none" xmlns="http://www.w3.org/2000/svg">
<g clip-path="url(#clip0_1_186)">
<path d="M100.489 106.832C110.337 106.832 118.321 98.8482 118.321 89C118.321 79.1518 110.337 71.1682 100.489 71.1682C90.6407 71.1682 82.6571 79.1518 82.6571 89C82.6571 98.8482 90.6407 106.832 100.489 106.832Z" fill="white"/>
<path fill-rule="evenodd" clip-rule="evenodd" d="M13.8351 76.4519C9.27184 80.5713 7.05921 84.8154 7.05921 89C7.05921 93.1846 9.27184 97.4287 13.8351 101.548C18.3982 105.667 25.1275 109.48 33.6347 112.728C50.6336 119.219 74.2695 123.28 100.489 123.28C126.708 123.28 150.344 119.219 167.343 112.728C175.85 109.48 182.58 105.667 187.143 101.548C191.706 97.4287 193.919 93.1846 193.919 89C193.919 84.8154 191.706 80.5713 187.143 76.4519C182.58 72.3327 175.85 68.5199 167.343 65.2717C150.344 58.7813 126.708 54.7196 100.489 54.7196C74.2695 54.7196 50.6336 58.7813 33.6347 65.2717C25.1275 68.5199 18.3982 72.3327 13.8351 76.4519ZM32.0274 61.0622C49.6588 54.3302 73.8643 50.2136 100.489 50.2136C127.114 50.2136 151.319 54.3302 168.95 61.0622C177.758 64.4252 185.041 68.4847 190.162 73.1072C195.282 77.7294 198.425 83.0962 198.425 89C198.425 94.9038 195.282 100.271 190.162 104.893C185.041 109.515 177.758 113.575 168.95 116.938C151.319 123.67 127.114 127.786 100.489 127.786C73.8643 127.786 49.6588 123.67 32.0274 116.938C23.2194 113.575 15.9364 109.515 10.8158 104.893C5.69546 100.271 2.55327 94.9038 2.55327 89C2.55327 83.0962 5.69546 77.7294 10.8158 73.1072C15.9364 68.4847 23.2194 64.4252 32.0274 61.0622Z" fill="white"/>
<path fill-rule="evenodd" clip-rule="evenodd" d="M68.029 7.68162C62.1799 5.78939 57.398 5.99524 53.774 8.08755C50.1501 10.1799 47.5809 14.2181 46.295 20.2297C45.0093 26.241 45.072 33.9752 46.5125 42.9667C49.391 60.9334 57.6915 83.4336 70.8012 106.14C83.9109 128.847 99.2464 147.285 113.367 158.762C120.433 164.505 127.1 168.426 132.949 170.318C138.798 172.211 143.58 172.005 147.204 169.913C150.828 167.82 153.397 163.782 154.683 157.77C155.969 151.759 155.906 144.025 154.465 135.033C151.587 117.067 143.286 94.5666 130.177 71.8599C117.067 49.1531 101.731 30.7147 87.611 19.2385C80.5444 13.4951 73.8778 9.57376 68.029 7.68162ZM90.453 15.7418C105.099 27.645 120.767 46.5493 134.079 69.6069C147.391 92.6645 155.929 115.685 158.914 134.321C160.406 143.63 160.532 151.967 159.089 158.713C157.646 165.458 154.57 170.863 149.457 173.815C144.344 176.767 138.125 176.729 131.562 174.606C124.998 172.482 117.841 168.205 110.525 162.258C95.879 150.355 80.2113 131.451 66.8989 108.393C53.5866 85.3356 45.049 62.3148 42.0633 43.6795C40.5718 34.3701 40.4459 26.033 41.8888 19.2872C43.3316 12.5418 46.4082 7.13719 51.5211 4.18529C56.6339 1.23339 62.8528 1.27122 69.4159 3.39444C75.9793 5.51777 83.1365 9.79535 90.453 15.7418Z" fill="white"/>
<path fill-rule="evenodd" clip-rule="evenodd" d="M154.683 20.2297C153.397 14.2181 150.828 10.1799 147.204 8.08757C143.58 5.99527 138.798 5.78941 132.949 7.68165C127.1 9.57378 120.433 13.4952 113.367 19.2385C99.2464 30.7147 83.9109 49.1532 70.8012 71.8599C57.6914 94.5666 49.391 117.067 46.5125 135.033C45.0719 144.025 45.0093 151.759 46.295 157.77C47.5809 163.782 50.15 167.82 53.774 169.913C57.398 172.005 62.1798 172.211 68.029 170.319C73.8778 168.426 80.5444 164.505 87.611 158.762C101.731 147.285 117.067 128.847 130.177 106.14C143.286 83.4336 151.587 60.9334 154.465 42.9667C155.906 33.9752 155.969 26.241 154.683 20.2297ZM158.914 43.6796C155.929 62.3148 147.391 85.3356 134.079 108.393C120.767 131.451 105.099 150.355 90.453 162.258C83.1365 168.205 75.9793 172.482 69.4159 174.606C62.8528 176.729 56.6339 176.767 51.5211 173.815C46.4082 170.863 43.3315 165.458 41.8888 158.713C40.4459 151.967 40.5718 143.63 42.0633 134.321C45.0489 115.685 53.5866 92.6645 66.8989 69.6069C80.2112 46.5493 95.879 27.6451 110.525 15.7418C117.841 9.79538 124.998 5.5178 131.562 3.39447C138.125 1.27124 144.344 1.23341 149.457 4.18531C154.57 7.13722 157.646 12.5418 159.089 19.2873C160.532 26.033 160.406 34.3701 158.914 43.6796Z" fill="white"/>
</g>
<defs>
<clipPath id="clip0_1_186">
<rect width="200.064" height="178" fill="white" transform="translate(0.457031)"/>
</clipPath>
</defs>
</svg>
