<svg width="380" height="47" viewBox="0 0 380 47" fill="none" xmlns="http://www.w3.org/2000/svg">
<g clip-path="url(#clip0_1_93)">
<path d="M39.8229 0C29.3787 0 22.8512 5.22214 20.2405 15.6672C24.1573 10.4443 28.7271 8.48589 33.9492 9.79198C36.9287 10.5361 39.0581 12.6988 41.4156 15.0911C45.2554 18.9887 49.7001 23.5 59.4076 23.5C69.8519 23.5 76.3794 18.2779 78.9908 7.83284C75.0741 13.0557 70.5042 15.0141 65.2821 13.708C62.3026 12.9639 60.1732 10.8012 57.8157 8.40888C53.9752 4.51134 49.5312 0 39.8229 0ZM20.2405 23.5C9.79619 23.5 3.2687 28.7221 0.657257 39.1672C4.57405 33.9443 9.14314 31.9859 14.3653 33.292C17.3454 34.0376 19.4741 36.1988 21.8316 38.5911C25.6714 42.4887 30.1168 47 39.8237 47C50.2687 47 56.7962 41.7779 59.4076 31.3328C55.4908 36.5557 50.921 38.5141 45.6989 37.208C42.7194 36.4639 40.59 34.3012 38.2325 31.9096C34.3927 28.0113 29.948 23.5 20.2405 23.5Z" fill="#38BDF8"/>
<path d="M118.151 19.804H111.316V33.0337C111.316 36.5617 113.63 36.5062 118.151 36.2856V41.6328C109.001 42.7353 105.362 40.1994 105.362 33.0337V19.804H100.29V14.0709H105.362V6.66679L111.315 4.90313V14.0709H118.151V19.804ZM144.207 14.0709H150.16V41.6336H144.207V37.665C142.112 40.5859 138.86 42.3503 134.56 42.3503C127.064 42.3503 120.835 36.0109 120.835 27.853C120.835 19.6396 127.064 13.3557 134.56 13.3557C138.86 13.3557 142.113 15.1194 144.207 17.9855V14.0709ZM135.497 36.6728C140.458 36.6728 144.207 32.9789 144.207 27.853C144.207 22.7271 140.459 19.0332 135.497 19.0332C130.535 19.0332 126.788 22.7264 126.788 27.853C126.788 32.9796 130.536 36.6728 135.497 36.6728ZM160.082 9.93646C157.987 9.93646 156.279 8.17205 156.279 6.13221C156.281 5.12406 156.682 4.15776 157.395 3.44489C158.108 2.73202 159.074 2.33066 160.082 2.32871C161.091 2.33066 162.057 2.73202 162.77 3.44489C163.483 4.15776 163.884 5.12406 163.886 6.13221C163.886 8.17205 162.177 9.93646 160.082 9.93646ZM157.106 41.6321V14.0709H163.059V41.6336L157.106 41.6321ZM169.949 41.6321V1.39282H175.903V41.6328L169.949 41.6321ZM214.544 14.0702H220.828L212.174 41.6336H206.331L200.598 23.0566L194.81 41.6336H188.967L180.313 14.0717H186.597L191.944 33.0892L197.732 14.0717H203.409L209.142 33.0892L214.544 14.0702ZM228.215 9.93646C226.12 9.93646 224.412 8.17205 224.412 6.13221C224.414 5.12406 224.815 4.15776 225.528 3.44489C226.241 2.73202 227.207 2.33066 228.215 2.32871C229.223 2.33066 230.19 2.73202 230.903 3.44489C231.616 4.15776 232.017 5.12406 232.019 6.13221C232.019 8.17205 230.31 9.93646 228.215 9.93646ZM225.239 41.6321V14.0709H231.192V41.6336L225.239 41.6321ZM252.579 13.3535C258.754 13.3535 263.164 17.5435 263.164 24.7092V41.6321H257.211V25.3163C257.211 21.1271 254.784 18.9221 251.036 18.9221C247.123 18.9221 244.036 21.2374 244.036 26.8594V41.6336H238.083V14.0709H244.036V17.599C245.855 14.7329 248.831 13.3542 252.58 13.3542L252.579 13.3535ZM291.387 3.04617H297.34V41.6336H291.387V37.665C289.292 40.5859 286.04 42.3503 281.741 42.3503C274.244 42.3503 268.015 36.0109 268.015 27.853C268.015 19.6396 274.244 13.3557 281.741 13.3557C286.04 13.3557 289.293 15.1194 291.387 17.9855V3.04617ZM282.677 36.6728C287.638 36.6728 291.387 32.9789 291.387 27.853C291.387 22.7271 287.638 19.0332 282.677 19.0332C277.716 19.0332 273.968 22.7264 273.968 27.853C273.968 32.9796 277.716 36.6728 282.677 36.6728ZM317.295 42.3503C308.971 42.3503 302.742 36.0109 302.742 27.853C302.742 19.6396 308.971 13.3557 317.295 13.3557C322.697 13.3557 327.383 16.1663 329.588 20.4659L324.461 23.4423C323.248 20.8524 320.547 19.1983 317.24 19.1983C312.389 19.1983 308.695 22.8915 308.695 27.853C308.695 32.8145 312.389 36.507 317.24 36.507C320.547 36.507 323.248 34.7981 324.571 32.2629L329.697 35.1838C327.383 39.539 322.697 42.3503 317.295 42.3503H317.295ZM339.509 21.6787C339.509 26.695 354.337 23.663 354.337 33.8615C354.337 39.3738 349.542 42.3503 343.589 42.3503C338.076 42.3503 334.107 39.8699 332.343 35.9013L337.47 32.9241C338.352 35.4045 340.557 36.8927 343.589 36.8927C346.234 36.8927 348.274 36.0116 348.274 33.8059C348.274 28.8999 333.446 31.6565 333.446 21.789C333.446 16.6076 337.911 13.3557 343.533 13.3557C348.054 13.3557 351.802 15.4496 353.731 19.088L348.716 21.8993C347.723 19.7499 345.794 18.757 343.533 18.757C341.384 18.757 339.509 19.6944 339.509 21.6787ZM364.922 21.6787C364.922 26.695 379.75 23.663 379.75 33.8615C379.75 39.3738 374.954 42.3503 369.001 42.3503C363.488 42.3503 359.52 39.8699 357.755 35.9013L362.882 32.9241C363.764 35.4045 365.969 36.8927 369.001 36.8927C371.647 36.8927 373.686 36.0116 373.686 33.8059C373.686 28.8999 358.858 31.6565 358.858 21.789C358.858 16.6076 363.322 13.3557 368.946 13.3557C373.465 13.3557 377.214 15.4496 379.144 19.088L374.127 21.8993C373.135 19.7499 371.206 18.757 368.946 18.757C366.796 18.757 364.922 19.6944 364.922 21.6787Z" fill="white"/>
</g>
<defs>
<clipPath id="clip0_1_93">
<rect width="379.092" height="47" fill="white" transform="translate(0.656494)"/>
</clipPath>
</defs>
</svg>
