<svg width="137" height="133" viewBox="0 0 137 133" fill="none" xmlns="http://www.w3.org/2000/svg">
<g clip-path="url(#clip0_1_150)">
<path d="M24.156 0H112.254C125.611 0 136.41 10.7991 136.41 24.156V108.844C136.41 122.201 125.611 133 112.254 133H24.156C10.7991 133 0 122.201 0 108.844V24.156C0 10.7991 10.7991 0 24.156 0Z" fill="#470137"/>
<path d="M71.729 34.9551L54.6778 63.0897L72.8658 92.9295C72.9795 93.1568 73.0363 93.3842 72.9795 93.6115C72.9226 93.8389 72.6953 93.6683 72.3543 93.7252H59.3384C58.429 93.7252 57.8038 93.6684 57.406 93.1C56.2124 90.7128 54.9619 88.3825 53.7684 85.9953C52.5748 83.6649 51.2675 81.2778 49.9034 78.8337C48.5393 76.3897 47.1752 73.9457 45.8111 71.4448H45.6974C44.5038 73.8889 43.1966 76.3329 41.8893 78.7769C40.582 81.2209 39.2748 83.6649 38.0243 86.0521C36.7171 88.4393 35.4098 90.8833 34.1025 93.2136C33.8752 93.782 33.4205 93.8389 32.7953 93.8389H20.291C20.0637 93.8389 19.8931 93.9525 19.8931 93.6684C19.8363 93.441 19.8931 93.2136 20.0068 93.0431L37.6833 64.056L20.4615 34.8983C20.291 34.6709 20.2342 34.4436 20.3478 34.3299C20.4615 34.1594 20.6889 34.1025 20.9162 34.1025H33.8184C34.1025 34.1025 34.3867 34.1594 34.6141 34.2162C34.8414 34.3299 35.012 34.5004 35.1825 34.7278C36.2624 37.1718 37.5128 39.6158 38.8201 42.0598C40.1842 44.5038 41.4914 46.891 42.9124 49.2782C44.2765 51.6654 45.5269 54.0525 46.7205 56.4966H46.8342C48.0278 53.9957 49.2782 51.5517 50.5286 49.1645C51.779 46.7773 53.0863 44.3901 54.3936 42.003C55.7008 39.6158 56.9513 37.1718 58.2017 34.8414C58.2585 34.6141 58.3722 34.3867 58.5427 34.2731C58.7701 34.1594 58.9974 34.1025 59.2816 34.1594H71.2743C71.5585 34.1025 71.8427 34.2731 71.8996 34.5572C71.9564 34.6141 71.8427 34.8414 71.729 34.9551Z" fill="#FF61F6"/>
<path d="M97.988 94.9189C93.782 94.9757 89.576 94.1231 85.7679 92.3612C82.1872 90.7129 79.2316 87.9847 77.1855 84.6313C75.0825 81.1642 74.0594 76.8445 74.0594 71.6723C74.0025 67.4663 75.0825 63.3172 77.1855 59.6796C79.3453 55.9851 82.4713 52.9159 86.2226 50.8697C90.2013 48.6531 94.9756 47.5731 100.603 47.5731C100.887 47.5731 101.285 47.5731 101.796 47.63C102.308 47.6868 102.876 47.6868 103.558 47.7437V29.783C103.558 29.3851 103.729 29.1578 104.126 29.1578H115.665C115.949 29.1009 116.176 29.3283 116.233 29.5556C116.233 29.6125 116.233 29.6693 116.233 29.6693V83.7787C116.233 84.8018 116.29 85.9385 116.347 87.189C116.46 88.3825 116.517 89.5193 116.574 90.4855C116.574 90.8834 116.403 91.2244 116.006 91.3949C113.05 92.6454 109.924 93.5548 106.741 94.1231C103.842 94.6347 100.944 94.9189 97.988 94.9189ZM103.558 83.5513V58.5428C103.047 58.4291 102.535 58.3155 102.023 58.2586C101.398 58.2018 100.773 58.1449 100.148 58.1449C97.9312 58.1449 95.7145 58.5996 93.7252 59.6227C91.7927 60.589 90.1444 62.0099 88.894 63.8287C87.6436 65.6475 87.0184 68.0915 87.0184 71.0471C86.9615 73.0364 87.3025 75.0257 87.9846 76.9014C88.553 78.436 89.4055 79.8001 90.5423 80.9368C91.6222 81.9599 92.9295 82.7556 94.4072 83.2103C95.9419 83.7219 97.5333 83.9492 99.1248 83.9492C99.9773 83.9492 100.773 83.8924 101.512 83.8355C102.251 83.8924 102.876 83.7787 103.558 83.5513Z" fill="#FF61F6"/>
</g>
<defs>
<clipPath id="clip0_1_150">
<rect width="136.41" height="133" fill="white"/>
</clipPath>
</defs>
</svg>
